<?xml version="1.0" encoding="utf-8" standalone="no"?>
<!DOCTYPE svg PUBLIC "-//W3C//DTD SVG 1.1//EN"
  "http://www.w3.org/Graphics/SVG/1.1/DTD/svg11.dtd">
<!-- Created with matplotlib (https://matplotlib.org/) -->
<svg height="345.6pt" version="1.1" viewBox="0 0 460.8 345.6" width="460.8pt" xmlns="http://www.w3.org/2000/svg" xmlns:xlink="http://www.w3.org/1999/xlink">
 <metadata>
  <rdf:RDF xmlns:cc="http://creativecommons.org/ns#" xmlns:dc="http://purl.org/dc/elements/1.1/" xmlns:rdf="http://www.w3.org/1999/02/22-rdf-syntax-ns#">
   <cc:Work>
    <dc:type rdf:resource="http://purl.org/dc/dcmitype/StillImage"/>
    <dc:date>2020-09-03T13:03:25.125225</dc:date>
    <dc:format>image/svg+xml</dc:format>
    <dc:creator>
     <cc:Agent>
      <dc:title>Matplotlib v3.3.1, https://matplotlib.org/</dc:title>
     </cc:Agent>
    </dc:creator>
   </cc:Work>
  </rdf:RDF>
 </metadata>
 <defs>
  <style type="text/css">*{stroke-linecap:butt;stroke-linejoin:round;}</style>
 </defs>
 <g id="figure_1">
  <g id="patch_1">
   <path d="M 0 345.6 
L 460.8 345.6 
L 460.8 0 
L 0 0 
z
" style="fill:#ffffff;"/>
  </g>
  <g id="axes_1">
   <g id="patch_2">
    <path d="M 45.627553 133.144 
L 439.826704 133.144 
L 439.826704 14.4 
L 45.627553 14.4 
z
" style="fill:#ffffff;"/>
   </g>
   <g id="matplotlib.axis_1">
    <g id="xtick_1">
     <g id="line2d_1">
      <defs>
       <path d="M 0 0 
L 0 3.5 
" id="m7286a45697" style="stroke:#000000;stroke-width:0.8;"/>
      </defs>
      <g>
       <use style="stroke:#000000;stroke-width:0.8;" x="45.627553" xlink:href="#m7286a45697" y="133.144"/>
      </g>
     </g>
     <g id="text_1">
      <!-- 0 -->
      <g transform="translate(42.446303 147.742437)scale(0.1 -0.1)">
       <defs>
        <path d="M 31.78125 66.40625 
Q 24.171875 66.40625 20.328125 58.90625 
Q 16.5 51.421875 16.5 36.375 
Q 16.5 21.390625 20.328125 13.890625 
Q 24.171875 6.390625 31.78125 6.390625 
Q 39.453125 6.390625 43.28125 13.890625 
Q 47.125 21.390625 47.125 36.375 
Q 47.125 51.421875 43.28125 58.90625 
Q 39.453125 66.40625 31.78125 66.40625 
z
M 31.78125 74.21875 
Q 44.046875 74.21875 50.515625 64.515625 
Q 56.984375 54.828125 56.984375 36.375 
Q 56.984375 17.96875 50.515625 8.265625 
Q 44.046875 -1.421875 31.78125 -1.421875 
Q 19.53125 -1.421875 13.0625 8.265625 
Q 6.59375 17.96875 6.59375 36.375 
Q 6.59375 54.828125 13.0625 64.515625 
Q 19.53125 74.21875 31.78125 74.21875 
z
" id="DejaVuSans-48"/>
       </defs>
       <use xlink:href="#DejaVuSans-48"/>
      </g>
     </g>
    </g>
    <g id="xtick_2">
     <g id="line2d_2">
      <g>
       <use style="stroke:#000000;stroke-width:0.8;" x="101.941717" xlink:href="#m7286a45697" y="133.144"/>
      </g>
     </g>
     <g id="text_2">
      <!-- $\omega_g$ -->
      <g transform="translate(95.391717 146.722125)scale(0.1 -0.1)">
       <defs>
        <path d="M 21.390625 -1.421875 
Q 1.125 -1.421875 6.78125 27.59375 
Q 8.984375 39.0625 19.625 54.6875 
L 29.296875 54.6875 
Q 19.234375 39.0625 17 27.34375 
Q 12.796875 6.203125 23.734375 6.203125 
Q 33.84375 6.203125 38.71875 32.46875 
L 47.015625 32.46875 
Q 41.703125 6.0625 51.8125 6.203125 
Q 62.703125 6.296875 66.796875 27.34375 
Q 69.046875 39.0625 65.140625 54.6875 
L 74.8125 54.6875 
Q 79.296875 39.0625 77.09375 27.59375 
Q 71.53125 -1.46875 51.21875 -1.421875 
Q 37.9375 -1.375 39.109375 13.1875 
Q 34.28125 -1.421875 21.390625 -1.421875 
z
" id="DejaVuSans-Oblique-969"/>
        <path d="M 59.625 54.6875 
L 50.296875 6.78125 
Q 47.609375 -7.125 40.015625 -13.953125 
Q 32.421875 -20.796875 19.578125 -20.796875 
Q 14.84375 -20.796875 10.78125 -20.09375 
Q 6.734375 -19.390625 3.21875 -17.921875 
L 4.890625 -9.1875 
Q 8.203125 -11.328125 11.90625 -12.34375 
Q 15.625 -13.375 19.828125 -13.375 
Q 28.375 -13.375 33.859375 -8.703125 
Q 39.359375 -4.046875 41.109375 4.6875 
L 41.890625 8.796875 
Q 38.140625 4.5 33.15625 2.25 
Q 28.171875 0 22.40625 0 
Q 14.109375 0 9.34375 5.484375 
Q 4.59375 10.984375 4.59375 20.609375 
Q 4.59375 28.171875 7.46875 35.421875 
Q 10.359375 42.671875 15.578125 48.296875 
Q 19.046875 52 23.65625 54 
Q 28.265625 56 33.296875 56 
Q 38.8125 56 42.90625 53.4375 
Q 47.015625 50.875 49.03125 46.1875 
L 50.59375 54.6875 
z
M 46.09375 34.625 
Q 46.09375 41.265625 42.96875 44.875 
Q 39.84375 48.484375 34.078125 48.484375 
Q 30.515625 48.484375 27.296875 47.0625 
Q 24.078125 45.65625 21.78125 43.109375 
Q 18.0625 38.921875 15.984375 33.234375 
Q 13.921875 27.546875 13.921875 21.484375 
Q 13.921875 14.75 17.0625 11.125 
Q 20.21875 7.515625 26.125 7.515625 
Q 34.671875 7.515625 40.375 15.25 
Q 46.09375 23 46.09375 34.625 
z
" id="DejaVuSans-Oblique-103"/>
       </defs>
       <use transform="translate(0 0.3125)" xlink:href="#DejaVuSans-Oblique-969"/>
       <use transform="translate(83.740234 -16.09375)scale(0.7)" xlink:href="#DejaVuSans-Oblique-103"/>
      </g>
     </g>
    </g>
    <g id="xtick_3">
     <g id="line2d_3">
      <g>
       <use style="stroke:#000000;stroke-width:0.8;" x="158.255882" xlink:href="#m7286a45697" y="133.144"/>
      </g>
     </g>
    </g>
    <g id="xtick_4">
     <g id="line2d_4">
      <g>
       <use style="stroke:#000000;stroke-width:0.8;" x="214.570046" xlink:href="#m7286a45697" y="133.144"/>
      </g>
     </g>
    </g>
    <g id="xtick_5">
     <g id="line2d_5">
      <g>
       <use style="stroke:#000000;stroke-width:0.8;" x="270.884211" xlink:href="#m7286a45697" y="133.144"/>
      </g>
     </g>
    </g>
    <g id="xtick_6">
     <g id="line2d_6">
      <g>
       <use style="stroke:#000000;stroke-width:0.8;" x="327.198375" xlink:href="#m7286a45697" y="133.144"/>
      </g>
     </g>
    </g>
    <g id="xtick_7">
     <g id="line2d_7">
      <g>
       <use style="stroke:#000000;stroke-width:0.8;" x="383.51254" xlink:href="#m7286a45697" y="133.144"/>
      </g>
     </g>
    </g>
    <g id="xtick_8">
     <g id="line2d_8">
      <g>
       <use style="stroke:#000000;stroke-width:0.8;" x="439.826704" xlink:href="#m7286a45697" y="133.144"/>
      </g>
     </g>
     <g id="text_3">
      <!-- $7 \omega_g$ -->
      <g transform="translate(430.076704 147.444)scale(0.1 -0.1)">
       <defs>
        <path d="M 8.203125 72.90625 
L 55.078125 72.90625 
L 55.078125 68.703125 
L 28.609375 0 
L 18.3125 0 
L 43.21875 64.59375 
L 8.203125 64.59375 
z
" id="DejaVuSans-55"/>
       </defs>
       <use transform="translate(0 0.09375)" xlink:href="#DejaVuSans-55"/>
       <use transform="translate(63.623047 0.09375)" xlink:href="#DejaVuSans-Oblique-969"/>
       <use transform="translate(147.363281 -16.3125)scale(0.7)" xlink:href="#DejaVuSans-Oblique-103"/>
      </g>
     </g>
    </g>
    <g id="text_4">
     <!-- Frequency -->
     <g transform="translate(216.897441 162.142437)scale(0.1 -0.1)">
      <defs>
       <path d="M 9.8125 72.90625 
L 51.703125 72.90625 
L 51.703125 64.59375 
L 19.671875 64.59375 
L 19.671875 43.109375 
L 48.578125 43.109375 
L 48.578125 34.8125 
L 19.671875 34.8125 
L 19.671875 0 
L 9.8125 0 
z
" id="DejaVuSans-70"/>
       <path d="M 41.109375 46.296875 
Q 39.59375 47.171875 37.8125 47.578125 
Q 36.03125 48 33.890625 48 
Q 26.265625 48 22.1875 43.046875 
Q 18.109375 38.09375 18.109375 28.8125 
L 18.109375 0 
L 9.078125 0 
L 9.078125 54.6875 
L 18.109375 54.6875 
L 18.109375 46.1875 
Q 20.953125 51.171875 25.484375 53.578125 
Q 30.03125 56 36.53125 56 
Q 37.453125 56 38.578125 55.875 
Q 39.703125 55.765625 41.0625 55.515625 
z
" id="DejaVuSans-114"/>
       <path d="M 56.203125 29.59375 
L 56.203125 25.203125 
L 14.890625 25.203125 
Q 15.484375 15.921875 20.484375 11.0625 
Q 25.484375 6.203125 34.421875 6.203125 
Q 39.59375 6.203125 44.453125 7.46875 
Q 49.3125 8.734375 54.109375 11.28125 
L 54.109375 2.78125 
Q 49.265625 0.734375 44.1875 -0.34375 
Q 39.109375 -1.421875 33.890625 -1.421875 
Q 20.796875 -1.421875 13.15625 6.1875 
Q 5.515625 13.8125 5.515625 26.8125 
Q 5.515625 40.234375 12.765625 48.109375 
Q 20.015625 56 32.328125 56 
Q 43.359375 56 49.78125 48.890625 
Q 56.203125 41.796875 56.203125 29.59375 
z
M 47.21875 32.234375 
Q 47.125 39.59375 43.09375 43.984375 
Q 39.0625 48.390625 32.421875 48.390625 
Q 24.90625 48.390625 20.390625 44.140625 
Q 15.875 39.890625 15.1875 32.171875 
z
" id="DejaVuSans-101"/>
       <path d="M 14.796875 27.296875 
Q 14.796875 17.390625 18.875 11.75 
Q 22.953125 6.109375 30.078125 6.109375 
Q 37.203125 6.109375 41.296875 11.75 
Q 45.40625 17.390625 45.40625 27.296875 
Q 45.40625 37.203125 41.296875 42.84375 
Q 37.203125 48.484375 30.078125 48.484375 
Q 22.953125 48.484375 18.875 42.84375 
Q 14.796875 37.203125 14.796875 27.296875 
z
M 45.40625 8.203125 
Q 42.578125 3.328125 38.25 0.953125 
Q 33.9375 -1.421875 27.875 -1.421875 
Q 17.96875 -1.421875 11.734375 6.484375 
Q 5.515625 14.40625 5.515625 27.296875 
Q 5.515625 40.1875 11.734375 48.09375 
Q 17.96875 56 27.875 56 
Q 33.9375 56 38.25 53.625 
Q 42.578125 51.265625 45.40625 46.390625 
L 45.40625 54.6875 
L 54.390625 54.6875 
L 54.390625 -20.796875 
L 45.40625 -20.796875 
z
" id="DejaVuSans-113"/>
       <path d="M 8.5 21.578125 
L 8.5 54.6875 
L 17.484375 54.6875 
L 17.484375 21.921875 
Q 17.484375 14.15625 20.5 10.265625 
Q 23.53125 6.390625 29.59375 6.390625 
Q 36.859375 6.390625 41.078125 11.03125 
Q 45.3125 15.671875 45.3125 23.6875 
L 45.3125 54.6875 
L 54.296875 54.6875 
L 54.296875 0 
L 45.3125 0 
L 45.3125 8.40625 
Q 42.046875 3.421875 37.71875 1 
Q 33.40625 -1.421875 27.6875 -1.421875 
Q 18.265625 -1.421875 13.375 4.4375 
Q 8.5 10.296875 8.5 21.578125 
z
M 31.109375 56 
z
" id="DejaVuSans-117"/>
       <path d="M 54.890625 33.015625 
L 54.890625 0 
L 45.90625 0 
L 45.90625 32.71875 
Q 45.90625 40.484375 42.875 44.328125 
Q 39.84375 48.1875 33.796875 48.1875 
Q 26.515625 48.1875 22.3125 43.546875 
Q 18.109375 38.921875 18.109375 30.90625 
L 18.109375 0 
L 9.078125 0 
L 9.078125 54.6875 
L 18.109375 54.6875 
L 18.109375 46.1875 
Q 21.34375 51.125 25.703125 53.5625 
Q 30.078125 56 35.796875 56 
Q 45.21875 56 50.046875 50.171875 
Q 54.890625 44.34375 54.890625 33.015625 
z
" id="DejaVuSans-110"/>
       <path d="M 48.78125 52.59375 
L 48.78125 44.1875 
Q 44.96875 46.296875 41.140625 47.34375 
Q 37.3125 48.390625 33.40625 48.390625 
Q 24.65625 48.390625 19.8125 42.84375 
Q 14.984375 37.3125 14.984375 27.296875 
Q 14.984375 17.28125 19.8125 11.734375 
Q 24.65625 6.203125 33.40625 6.203125 
Q 37.3125 6.203125 41.140625 7.25 
Q 44.96875 8.296875 48.78125 10.40625 
L 48.78125 2.09375 
Q 45.015625 0.34375 40.984375 -0.53125 
Q 36.96875 -1.421875 32.421875 -1.421875 
Q 20.0625 -1.421875 12.78125 6.34375 
Q 5.515625 14.109375 5.515625 27.296875 
Q 5.515625 40.671875 12.859375 48.328125 
Q 20.21875 56 33.015625 56 
Q 37.15625 56 41.109375 55.140625 
Q 45.0625 54.296875 48.78125 52.59375 
z
" id="DejaVuSans-99"/>
       <path d="M 32.171875 -5.078125 
Q 28.375 -14.84375 24.75 -17.8125 
Q 21.140625 -20.796875 15.09375 -20.796875 
L 7.90625 -20.796875 
L 7.90625 -13.28125 
L 13.1875 -13.28125 
Q 16.890625 -13.28125 18.9375 -11.515625 
Q 21 -9.765625 23.484375 -3.21875 
L 25.09375 0.875 
L 2.984375 54.6875 
L 12.5 54.6875 
L 29.59375 11.921875 
L 46.6875 54.6875 
L 56.203125 54.6875 
z
" id="DejaVuSans-121"/>
      </defs>
      <use xlink:href="#DejaVuSans-70"/>
      <use x="50.269531" xlink:href="#DejaVuSans-114"/>
      <use x="89.132812" xlink:href="#DejaVuSans-101"/>
      <use x="150.65625" xlink:href="#DejaVuSans-113"/>
      <use x="214.132812" xlink:href="#DejaVuSans-117"/>
      <use x="277.511719" xlink:href="#DejaVuSans-101"/>
      <use x="339.035156" xlink:href="#DejaVuSans-110"/>
      <use x="402.414062" xlink:href="#DejaVuSans-99"/>
      <use x="457.394531" xlink:href="#DejaVuSans-121"/>
     </g>
    </g>
   </g>
   <g id="matplotlib.axis_2">
    <g id="ytick_1">
     <g id="line2d_9">
      <defs>
       <path d="M 0 0 
L -3.5 0 
" id="md505879fec" style="stroke:#000000;stroke-width:0.8;"/>
      </defs>
      <g>
       <use style="stroke:#000000;stroke-width:0.8;" x="45.627553" xlink:href="#md505879fec" y="133.144"/>
      </g>
     </g>
     <g id="text_5">
      <!-- 0 -->
      <g transform="translate(32.265053 136.943219)scale(0.1 -0.1)">
       <use xlink:href="#DejaVuSans-48"/>
      </g>
     </g>
    </g>
    <g id="ytick_2">
     <g id="line2d_10">
      <g>
       <use style="stroke:#000000;stroke-width:0.8;" x="45.627553" xlink:href="#md505879fec" y="14.4"/>
      </g>
     </g>
     <g id="text_6">
      <!-- $\sigma_0$ -->
      <g transform="translate(27.527553 18.199219)scale(0.1 -0.1)">
       <defs>
        <path d="M 34.671875 47.5625 
Q 27.25 47.5625 22.21875 42.1875 
Q 16.890625 36.578125 15.140625 27.296875 
Q 13.1875 17.484375 16.3125 11.8125 
Q 19.390625 6.203125 26.65625 6.203125 
Q 33.84375 6.203125 39.109375 11.859375 
Q 44.4375 17.53125 46.34375 27.296875 
Q 48.046875 36.234375 45.015625 42.1875 
Q 42.1875 47.5625 34.671875 47.5625 
z
M 36.078125 54.734375 
L 65.921875 54.6875 
L 64.15625 45.703125 
L 54.109375 45.703125 
Q 57.90625 38.09375 55.859375 27.296875 
Q 53.21875 13.875 45.0625 6.25 
Q 36.859375 -1.421875 25.140625 -1.421875 
Q 13.375 -1.421875 8.203125 6.25 
Q 3.03125 13.875 5.671875 27.296875 
Q 8.25 40.765625 16.40625 48.390625 
Q 23.1875 54.734375 36.078125 54.734375 
z
" id="DejaVuSans-Oblique-963"/>
       </defs>
       <use transform="translate(0 0.265625)" xlink:href="#DejaVuSans-Oblique-963"/>
       <use transform="translate(63.378906 -16.140625)scale(0.7)" xlink:href="#DejaVuSans-48"/>
      </g>
     </g>
    </g>
    <g id="text_7">
     <!-- $\Re\{\sigma_{sc}\}$ -->
     <g transform="translate(21.447865 91.272)rotate(-90)scale(0.1 -0.1)">
      <defs>
       <path d="M 62.59375 -1.421875 
Q 58.59375 7.515625 58.59375 15.28125 
Q 58.59375 22.125 57.515625 26.5625 
Q 55.5625 34.671875 51.703125 34.671875 
Q 49.65625 34.671875 45.171875 32.5625 
L 39.3125 29.828125 
L 39.3125 20.125 
Q 39.3125 10.0625 34.28125 4.296875 
Q 29.25 -1.421875 22.40625 -1.421875 
Q 15.53125 -1.421875 10.546875 4.296875 
Q 5.515625 10.0625 5.515625 18.65625 
Q 7.71875 18.0625 9.96875 17.484375 
Q 9.96875 11.53125 13.09375 7.328125 
Q 16.21875 3.078125 19.734375 3.078125 
Q 23.25 3.078125 26.3125 7.328125 
Q 29.4375 11.578125 29.4375 18.890625 
L 29.4375 51.46875 
Q 29.4375 58.734375 26.3125 63.03125 
Q 23.25 67.28125 18.75 67.28125 
Q 14.796875 67.28125 11.625 63.03125 
Q 8.5 58.84375 8.5 53.90625 
Q 8.5 48.96875 11.625 44.78125 
Q 14.75 40.53125 18.796875 40.53125 
L 21.4375 36.03125 
Q 14.0625 36.03125 9.078125 41.75 
Q 4.046875 47.515625 4.046875 55.125 
Q 4.046875 62.796875 9.078125 68.5 
Q 14.0625 74.21875 21.4375 74.21875 
Q 29.34375 74.21875 34.28125 68.5 
Q 35.75 66.796875 36.53125 65.234375 
L 46.828125 70.015625 
Q 55.953125 74.265625 61.421875 74.265625 
Q 63.71875 74.265625 65.484375 73.578125 
Q 71.625 71.1875 71.625 62.546875 
Q 71.625 58.296875 68.453125 52.296875 
Q 65.234375 46.234375 59.125 41.65625 
Q 61.96875 41.65625 64.359375 39.265625 
Q 66.109375 37.5 67.4375 32.421875 
Q 69 26.421875 69 20.015625 
Q 69 13.765625 71.1875 8.015625 
L 78.21875 11.28125 
L 80.28125 6.84375 
z
M 38.28125 60.890625 
Q 39.3125 57.234375 39.3125 52.734375 
L 39.3125 35.015625 
L 46.828125 38.484375 
Q 53.859375 41.75 57.625 46.828125 
Q 61.234375 51.8125 61.234375 57.71875 
Q 61.234375 65.09375 57.625 66.65625 
Q 56.453125 67.140625 54.9375 67.140625 
Q 51.8125 67.140625 46.828125 64.84375 
z
" id="DejaVuSans-Oblique-8476"/>
       <path d="M 51.125 -9.28125 
L 51.125 -16.3125 
L 48.09375 -16.3125 
Q 35.9375 -16.3125 31.8125 -12.6875 
Q 27.6875 -9.078125 27.6875 1.703125 
L 27.6875 13.375 
Q 27.6875 20.75 25.046875 23.578125 
Q 22.40625 26.421875 15.484375 26.421875 
L 12.5 26.421875 
L 12.5 33.40625 
L 15.484375 33.40625 
Q 22.46875 33.40625 25.078125 36.203125 
Q 27.6875 39.015625 27.6875 46.296875 
L 27.6875 58.015625 
Q 27.6875 68.796875 31.8125 72.390625 
Q 35.9375 75.984375 48.09375 75.984375 
L 51.125 75.984375 
L 51.125 69 
L 47.796875 69 
Q 40.921875 69 38.8125 66.84375 
Q 36.71875 64.703125 36.71875 57.8125 
L 36.71875 45.703125 
Q 36.71875 38.03125 34.5 34.5625 
Q 32.28125 31.109375 26.90625 29.890625 
Q 32.328125 28.5625 34.515625 25.09375 
Q 36.71875 21.625 36.71875 14.015625 
L 36.71875 1.90625 
Q 36.71875 -4.984375 38.8125 -7.125 
Q 40.921875 -9.28125 47.796875 -9.28125 
z
" id="DejaVuSans-123"/>
       <path d="M 50 53.078125 
L 48.296875 44.578125 
Q 44.734375 46.53125 40.765625 47.5 
Q 36.8125 48.484375 32.625 48.484375 
Q 25.53125 48.484375 21.453125 46.0625 
Q 17.390625 43.65625 17.390625 39.5 
Q 17.390625 34.671875 26.859375 32.078125 
Q 27.59375 31.890625 27.9375 31.78125 
L 30.8125 30.90625 
Q 39.796875 28.421875 42.796875 25.6875 
Q 45.796875 22.953125 45.796875 18.21875 
Q 45.796875 9.515625 38.890625 4.046875 
Q 31.984375 -1.421875 20.796875 -1.421875 
Q 16.453125 -1.421875 11.671875 -0.578125 
Q 6.890625 0.25 1.125 2 
L 2.875 11.28125 
Q 7.8125 8.734375 12.59375 7.421875 
Q 17.390625 6.109375 21.78125 6.109375 
Q 28.375 6.109375 32.5 8.9375 
Q 36.625 11.765625 36.625 16.109375 
Q 36.625 20.796875 25.78125 23.6875 
L 24.859375 23.921875 
L 21.78125 24.703125 
Q 14.9375 26.515625 11.765625 29.46875 
Q 8.59375 32.421875 8.59375 37.015625 
Q 8.59375 45.75 15.15625 50.875 
Q 21.734375 56 33.015625 56 
Q 37.453125 56 41.671875 55.265625 
Q 45.90625 54.546875 50 53.078125 
z
" id="DejaVuSans-Oblique-115"/>
       <path d="M 53.609375 52.59375 
L 51.8125 43.703125 
Q 48.578125 46.046875 44.9375 47.21875 
Q 41.3125 48.390625 37.40625 48.390625 
Q 33.109375 48.390625 29.21875 46.875 
Q 25.34375 45.359375 22.703125 42.578125 
Q 18.5 38.328125 16.203125 32.609375 
Q 13.921875 26.90625 13.921875 20.796875 
Q 13.921875 13.421875 17.609375 9.8125 
Q 21.296875 6.203125 28.8125 6.203125 
Q 32.515625 6.203125 36.6875 7.328125 
Q 40.875 8.453125 45.40625 10.6875 
L 43.703125 1.8125 
Q 39.796875 0.203125 35.671875 -0.609375 
Q 31.546875 -1.421875 27.203125 -1.421875 
Q 16.3125 -1.421875 10.453125 4.015625 
Q 4.59375 9.46875 4.59375 19.578125 
Q 4.59375 28.078125 7.640625 35.234375 
Q 10.6875 42.390625 16.703125 48.09375 
Q 20.796875 52 26.3125 54 
Q 31.84375 56 38.375 56 
Q 42.1875 56 45.9375 55.140625 
Q 49.703125 54.296875 53.609375 52.59375 
z
" id="DejaVuSans-Oblique-99"/>
       <path d="M 12.5 -9.28125 
L 15.921875 -9.28125 
Q 22.75 -9.28125 24.828125 -7.171875 
Q 26.90625 -5.078125 26.90625 1.90625 
L 26.90625 14.015625 
Q 26.90625 21.625 29.09375 25.09375 
Q 31.296875 28.5625 36.71875 29.890625 
Q 31.296875 31.109375 29.09375 34.5625 
Q 26.90625 38.03125 26.90625 45.703125 
L 26.90625 57.8125 
Q 26.90625 64.75 24.828125 66.875 
Q 22.75 69 15.921875 69 
L 12.5 69 
L 12.5 75.984375 
L 15.578125 75.984375 
Q 27.734375 75.984375 31.8125 72.390625 
Q 35.890625 68.796875 35.890625 58.015625 
L 35.890625 46.296875 
Q 35.890625 39.015625 38.515625 36.203125 
Q 41.15625 33.40625 48.09375 33.40625 
L 51.125 33.40625 
L 51.125 26.421875 
L 48.09375 26.421875 
Q 41.15625 26.421875 38.515625 23.578125 
Q 35.890625 20.75 35.890625 13.375 
L 35.890625 1.703125 
Q 35.890625 -9.078125 31.8125 -12.6875 
Q 27.734375 -16.3125 15.578125 -16.3125 
L 12.5 -16.3125 
z
" id="DejaVuSans-125"/>
      </defs>
      <use transform="translate(0 0.015625)" xlink:href="#DejaVuSans-Oblique-8476"/>
      <use transform="translate(81.396484 0.015625)" xlink:href="#DejaVuSans-123"/>
      <use transform="translate(145.019531 0.015625)" xlink:href="#DejaVuSans-Oblique-963"/>
      <use transform="translate(208.398438 -16.390625)scale(0.7)" xlink:href="#DejaVuSans-Oblique-115"/>
      <use transform="translate(244.868164 -16.390625)scale(0.7)" xlink:href="#DejaVuSans-Oblique-99"/>
      <use transform="translate(286.088867 0.015625)" xlink:href="#DejaVuSans-125"/>
     </g>
    </g>
   </g>
   <g id="line2d_11">
    <path clip-path="url(#pa0377211e4)" d="M 101.941717 133.144 
L 104.623344 132.616623 
L 107.304971 132.635295 
L 109.986598 132.670433 
L 112.668225 132.706791 
L 115.349852 132.741077 
L 118.031478 132.772473 
L 120.713105 132.800903 
L 123.394732 132.826539 
L 126.076359 132.849636 
L 128.757986 132.870457 
L 131.439613 132.889253 
L 134.12124 132.906255 
L 136.802867 132.92167 
L 139.484494 132.935676 
L 142.16612 132.948432 
L 144.847747 132.960079 
L 147.529374 132.970731 
L 150.211001 132.980503 
L 152.892628 132.989481 
L 155.574255 132.997748 
L 158.255882 133.005378 
L 160.937509 133.012431 
L 163.619135 133.018961 
L 166.300762 133.025025 
L 168.982389 133.030658 
L 171.664016 133.035903 
L 174.345643 133.040794 
L 177.02727 133.045362 
L 179.708897 133.049632 
L 182.390524 133.053633 
L 185.07215 133.057386 
L 187.753777 133.06091 
L 190.435404 133.064223 
L 193.117031 133.067343 
L 195.798658 133.070283 
L 198.480285 133.073057 
L 201.161912 133.075677 
L 203.843539 133.078153 
L 206.525166 133.080498 
L 209.206792 133.082719 
L 211.888419 133.084826 
L 214.570046 133.086828 
L 217.251673 133.088728 
L 219.9333 133.090533 
L 222.614927 133.092253 
L 225.296554 133.09389 
L 227.978181 133.095451 
L 230.659807 133.09694 
L 233.341434 133.09836 
L 236.023061 133.099719 
L 238.704688 133.101016 
L 241.386315 133.102256 
L 244.067942 133.103446 
L 246.749569 133.104582 
L 249.431196 133.105674 
L 252.112822 133.106718 
L 254.794449 133.107722 
L 257.476076 133.108684 
L 260.157703 133.10961 
L 262.83933 133.110499 
L 265.520957 133.111354 
L 268.202584 133.112176 
L 270.884211 133.112968 
L 273.565838 133.11373 
L 276.247464 133.114465 
L 278.929091 133.115173 
L 281.610718 133.115855 
L 284.292345 133.116514 
L 286.973972 133.117149 
L 289.655599 133.117763 
L 292.337226 133.118357 
L 295.018853 133.118929 
L 297.700479 133.119483 
L 300.382106 133.120018 
L 303.063733 133.120537 
L 305.74536 133.121039 
L 308.426987 133.121523 
L 311.108614 133.121993 
L 313.790241 133.122449 
L 316.471868 133.122892 
L 319.153494 133.12332 
L 321.835121 133.123735 
L 324.516748 133.124136 
L 327.198375 133.124527 
L 329.880002 133.124906 
L 332.561629 133.125274 
L 335.243256 133.125632 
L 337.924883 133.125979 
L 340.60651 133.126318 
L 343.288136 133.126646 
L 345.969763 133.126965 
L 348.65139 133.127276 
L 351.333017 133.127578 
L 354.014644 133.127871 
L 356.696271 133.128157 
L 359.377898 133.128436 
L 362.059525 133.128705 
L 364.741151 133.128969 
L 367.422778 133.129227 
L 370.104405 133.129477 
L 372.786032 133.129721 
L 375.467659 133.12996 
L 378.149286 133.130193 
L 380.830913 133.130419 
L 383.51254 133.13064 
L 386.194167 133.130855 
L 388.875793 133.131065 
L 391.55742 133.13127 
L 394.239047 133.131471 
L 396.920674 133.131667 
L 399.602301 133.131858 
L 402.283928 133.132045 
L 404.965555 133.132227 
L 407.647182 133.132405 
L 410.328808 133.13258 
L 413.010435 133.13275 
L 415.692062 133.132917 
L 418.373689 133.13308 
L 421.055316 133.133239 
L 423.736943 133.133395 
L 426.41857 133.133547 
L 429.100197 133.133696 
L 431.781823 133.133842 
L 434.46345 133.133985 
L 437.145077 133.134125 
L 439.826704 133.134262 
" style="fill:none;stroke:#000000;stroke-linecap:square;stroke-width:1.5;"/>
   </g>
   <g id="line2d_12">
    <path clip-path="url(#pa0377211e4)" d="M 45.627553 14.4 
L 48.30918 58.013291 
L 50.990806 97.399219 
L 53.672433 114.067095 
L 56.35406 121.601989 
L 59.035687 125.489256 
L 61.717314 127.721394 
L 64.398941 129.111185 
L 67.080568 130.031602 
L 69.762195 130.671218 
L 72.443822 131.13309 
L 77.807075 131.740271 
L 83.170329 132.109444 
L 91.21521 132.440391 
L 104.623344 132.722864 
L 126.076359 132.917151 
L 171.664016 133.051471 
L 297.700479 133.120854 
L 439.826704 133.134535 
L 439.826704 133.134535 
" style="fill:none;stroke:#000000;stroke-linecap:square;stroke-width:0.5;"/>
   </g>
   <g id="line2d_13">
    <path clip-path="url(#pa0377211e4)" d="M 101.941717 133.144 
L 104.623344 131.482676 
L 107.304971 131.397835 
L 109.986598 131.455401 
L 112.668225 131.549292 
L 115.349852 131.651506 
L 118.031478 131.752154 
L 120.713105 131.847424 
L 123.394732 131.935974 
L 126.076359 132.017517 
L 128.757986 132.092267 
L 131.439613 132.16065 
L 134.12124 132.223177 
L 136.802867 132.280365 
L 139.484494 132.332716 
L 142.16612 132.380698 
L 144.847747 132.424739 
L 147.529374 132.465225 
L 150.211001 132.502504 
L 152.892628 132.536887 
L 155.574255 132.568652 
L 158.255882 132.598047 
L 160.937509 132.625295 
L 163.619135 132.650591 
L 166.300762 132.674113 
L 168.982389 132.696014 
L 171.664016 132.716442 
L 174.345643 132.735526 
L 177.02727 132.75337 
L 179.708897 132.770078 
L 182.390524 132.78575 
L 185.07215 132.800467 
L 187.753777 132.814298 
L 190.435404 132.827316 
L 193.117031 132.839583 
L 195.798658 132.851153 
L 198.480285 132.862081 
L 201.161912 132.872409 
L 203.843539 132.882179 
L 206.525166 132.891438 
L 209.206792 132.900209 
L 211.888419 132.908536 
L 214.570046 132.916446 
L 217.251673 132.923959 
L 219.9333 132.931112 
L 222.614927 132.937916 
L 225.296554 132.944405 
L 227.978181 132.950587 
L 230.659807 132.95649 
L 233.341434 132.962124 
L 236.023061 132.967509 
L 238.704688 132.972657 
L 241.386315 132.977584 
L 244.067942 132.982299 
L 246.749569 132.986818 
L 249.431196 132.991151 
L 252.112822 132.995303 
L 254.794449 132.999293 
L 257.476076 133.003118 
L 260.157703 133.0068 
L 262.83933 133.010332 
L 265.520957 133.013736 
L 268.202584 133.017008 
L 270.884211 133.020154 
L 273.565838 133.023191 
L 276.247464 133.026112 
L 278.929091 133.028932 
L 281.610718 133.03165 
L 284.292345 133.034271 
L 286.973972 133.036804 
L 289.655599 133.039248 
L 292.337226 133.041609 
L 295.018853 133.043892 
L 297.700479 133.046099 
L 300.382106 133.048233 
L 303.063733 133.050298 
L 305.74536 133.052296 
L 308.426987 133.054233 
L 311.108614 133.056107 
L 313.790241 133.057922 
L 316.471868 133.059684 
L 319.153494 133.06139 
L 321.835121 133.063043 
L 324.516748 133.064649 
L 327.198375 133.066209 
L 329.880002 133.067722 
L 332.561629 133.069188 
L 335.243256 133.070615 
L 337.924883 133.072003 
L 340.60651 133.07335 
L 343.288136 133.07466 
L 345.969763 133.075931 
L 348.65139 133.077169 
L 351.333017 133.078376 
L 354.014644 133.079548 
L 356.696271 133.080689 
L 359.377898 133.081798 
L 362.059525 133.08288 
L 364.741151 133.083936 
L 367.422778 133.084962 
L 370.104405 133.085963 
L 372.786032 133.086938 
L 375.467659 133.087887 
L 378.149286 133.088814 
L 380.830913 133.089718 
L 383.51254 133.090602 
L 386.194167 133.091462 
L 388.875793 133.092302 
L 391.55742 133.093122 
L 394.239047 133.093923 
L 396.920674 133.094703 
L 399.602301 133.095467 
L 402.283928 133.096212 
L 404.965555 133.096941 
L 407.647182 133.097654 
L 410.328808 133.09835 
L 413.010435 133.09903 
L 415.692062 133.099695 
L 418.373689 133.100346 
L 421.055316 133.100982 
L 423.736943 133.101605 
L 426.41857 133.102214 
L 429.100197 133.102809 
L 431.781823 133.103392 
L 434.46345 133.103963 
L 437.145077 133.104522 
L 439.826704 133.105069 
" style="fill:none;stroke:#000000;stroke-dasharray:3,3,3,3;stroke-dashoffset:0;stroke-width:1.5;"/>
   </g>
   <g id="line2d_14">
    <path clip-path="url(#pa0377211e4)" d="M 45.627553 14.4 
L 48.30918 29.448745 
L 50.990806 58.013291 
L 53.672433 81.653239 
L 56.35406 97.399219 
L 59.035687 107.486918 
L 61.717314 114.067095 
L 64.398941 118.504329 
L 67.080568 121.601989 
L 69.762195 123.83447 
L 72.443822 125.489256 
L 75.125448 126.746186 
L 77.807075 127.721394 
L 80.488702 128.49213 
L 83.170329 129.111185 
L 88.533583 130.031602 
L 93.896837 130.671218 
L 101.941717 131.317169 
L 112.668225 131.849123 
L 126.076359 132.241774 
L 144.847747 132.549316 
L 174.345643 132.789929 
L 227.978181 132.967313 
L 343.288136 133.077629 
L 439.826704 133.106147 
L 439.826704 133.106147 
" style="fill:none;stroke:#000000;stroke-dasharray:2,2,2,2;stroke-dashoffset:0;stroke-width:0.5;"/>
   </g>
   <g id="line2d_15">
    <path clip-path="url(#pa0377211e4)" d="M 101.941717 133.144 
L 104.623344 129.146896 
L 107.304971 128.176855 
L 109.986598 127.939119 
L 112.668225 127.980729 
L 115.349852 128.144846 
L 118.031478 128.363349 
L 120.713105 128.603035 
L 123.394732 128.84671 
L 126.076359 129.085266 
L 128.757986 129.313963 
L 131.439613 129.530498 
L 134.12124 129.733949 
L 136.802867 129.924209 
L 139.484494 130.101616 
L 142.16612 130.266776 
L 144.847747 130.420393 
L 147.529374 130.563254 
L 150.211001 130.696134 
L 152.892628 130.819769 
L 155.574255 130.934904 
L 158.255882 131.042181 
L 160.937509 131.142255 
L 163.619135 131.235673 
L 166.300762 131.322993 
L 168.982389 131.404675 
L 171.664016 131.481185 
L 174.345643 131.55291 
L 177.02727 131.620234 
L 179.708897 131.683484 
L 182.390524 131.742976 
L 185.07215 131.798988 
L 187.753777 131.851774 
L 190.435404 131.901577 
L 193.117031 131.9486 
L 195.798658 131.99305 
L 198.480285 132.035108 
L 201.161912 132.074925 
L 203.843539 132.112674 
L 206.525166 132.148469 
L 209.206792 132.182466 
L 211.888419 132.214763 
L 214.570046 132.245468 
L 217.251673 132.274702 
L 219.9333 132.302531 
L 222.614927 132.32906 
L 225.296554 132.354368 
L 227.978181 132.378513 
L 230.659807 132.401582 
L 233.341434 132.423625 
L 236.023061 132.444702 
L 238.704688 132.464878 
L 241.386315 132.484192 
L 244.067942 132.502698 
L 246.749569 132.52044 
L 249.431196 132.537457 
L 252.112822 132.553789 
L 254.794449 132.56947 
L 257.476076 132.584536 
L 260.157703 132.599022 
L 262.83933 132.612947 
L 265.520957 132.626349 
L 268.202584 132.639254 
L 270.884211 132.651676 
L 273.565838 132.663648 
L 276.247464 132.675195 
L 278.929091 132.686326 
L 281.610718 132.697059 
L 284.292345 132.707424 
L 286.973972 132.717439 
L 289.655599 132.727108 
L 292.337226 132.736445 
L 295.018853 132.745483 
L 297.700479 132.754219 
L 300.382106 132.762665 
L 303.063733 132.770844 
L 305.74536 132.778767 
L 308.426987 132.786436 
L 311.108614 132.793861 
L 313.790241 132.801061 
L 316.471868 132.808045 
L 319.153494 132.814814 
L 321.835121 132.82138 
L 324.516748 132.827748 
L 327.198375 132.833932 
L 329.880002 132.839938 
L 332.561629 132.845769 
L 335.243256 132.851433 
L 337.924883 132.856937 
L 340.60651 132.862288 
L 343.288136 132.86749 
L 345.969763 132.872548 
L 348.65139 132.87747 
L 351.333017 132.882258 
L 354.014644 132.886917 
L 356.696271 132.891453 
L 359.377898 132.89587 
L 362.059525 132.900174 
L 364.741151 132.904365 
L 367.422778 132.908448 
L 370.104405 132.912426 
L 372.786032 132.916305 
L 375.467659 132.920088 
L 378.149286 132.92378 
L 380.830913 132.927378 
L 383.51254 132.930889 
L 386.194167 132.934311 
L 388.875793 132.937655 
L 391.55742 132.940919 
L 394.239047 132.94411 
L 396.920674 132.947222 
L 399.602301 132.950263 
L 402.283928 132.953229 
L 404.965555 132.956131 
L 407.647182 132.958967 
L 410.328808 132.961744 
L 413.010435 132.964454 
L 415.692062 132.967104 
L 418.373689 132.969696 
L 421.055316 132.972227 
L 423.736943 132.974708 
L 426.41857 132.977134 
L 429.100197 132.979509 
L 431.781823 132.981837 
L 434.46345 132.984112 
L 437.145077 132.98634 
L 439.826704 132.988521 
" style="fill:none;stroke:#000000;stroke-dasharray:6,3,6,3;stroke-dashoffset:0;stroke-width:1.5;"/>
   </g>
   <g id="line2d_16">
    <path clip-path="url(#pa0377211e4)" d="M 45.627553 14.4 
L 48.30918 18.557339 
L 50.990806 29.448745 
L 56.35406 58.013291 
L 59.035687 70.877527 
L 61.717314 81.653239 
L 64.398941 90.39616 
L 67.080568 97.399219 
L 69.762195 102.99656 
L 72.443822 107.486918 
L 75.125448 111.113666 
L 77.807075 114.067095 
L 80.488702 116.49341 
L 83.170329 118.504329 
L 85.851956 120.185301 
L 88.533583 121.601989 
L 91.21521 122.805184 
L 93.896837 123.83447 
L 96.578463 124.72095 
L 101.941717 126.159059 
L 107.304971 127.263472 
L 112.668225 128.12857 
L 120.713105 129.111185 
L 128.757986 129.833252 
L 139.484494 130.531051 
L 152.892628 131.13309 
L 168.982389 131.617158 
L 190.435404 132.032122 
L 219.9333 132.374374 
L 265.520957 132.659241 
L 340.60651 132.874129 
L 439.826704 132.992734 
L 439.826704 132.992734 
" style="fill:none;stroke:#000000;stroke-dasharray:4,2,4,2;stroke-dashoffset:0;stroke-width:0.5;"/>
   </g>
   <g id="line2d_17">
    <path clip-path="url(#pa0377211e4)" d="M 101.941717 133.144 
L 104.623344 126.637985 
L 107.304971 123.138482 
L 109.986598 121.232028 
L 112.668225 120.248009 
L 115.349852 119.825453 
L 118.031478 119.754045 
L 120.713105 119.904578 
L 123.394732 120.194763 
L 126.076359 120.570855 
L 128.757986 120.997128 
L 131.439613 121.449653 
L 134.12124 121.912279 
L 136.802867 122.374156 
L 139.484494 122.828103 
L 142.16612 123.269397 
L 144.847747 123.695082 
L 147.529374 124.103462 
L 150.211001 124.493634 
L 152.892628 124.865308 
L 155.574255 125.218627 
L 158.255882 125.553994 
L 160.937509 125.871955 
L 163.619135 126.173231 
L 166.300762 126.458582 
L 168.982389 126.728784 
L 171.664016 126.984636 
L 174.345643 127.226945 
L 177.02727 127.45647 
L 179.708897 127.673953 
L 182.390524 127.88011 
L 185.07215 128.075614 
L 187.753777 128.261105 
L 190.435404 128.437188 
L 193.117031 128.604426 
L 195.798658 128.763349 
L 198.480285 128.914471 
L 201.161912 129.058243 
L 203.843539 129.195102 
L 206.525166 129.325467 
L 209.206792 129.449724 
L 211.888419 129.568213 
L 214.570046 129.681264 
L 217.251673 129.789207 
L 219.9333 129.892325 
L 222.614927 129.9909 
L 225.296554 130.085164 
L 227.978181 130.175354 
L 230.659807 130.261713 
L 233.341434 130.344452 
L 236.023061 130.423742 
L 238.704688 130.499765 
L 241.386315 130.572713 
L 244.067942 130.642748 
L 246.749569 130.709999 
L 249.431196 130.774616 
L 252.112822 130.836723 
L 254.794449 130.896463 
L 257.476076 130.953954 
L 260.157703 131.009288 
L 262.83933 131.062577 
L 265.520957 131.11391 
L 268.202584 131.163396 
L 270.884211 131.211121 
L 273.565838 131.257153 
L 276.247464 131.301576 
L 278.929091 131.344458 
L 281.610718 131.385878 
L 284.292345 131.4259 
L 286.973972 131.464579 
L 289.655599 131.501977 
L 292.337226 131.538145 
L 295.018853 131.573143 
L 297.700479 131.607016 
L 300.382106 131.639813 
L 303.063733 131.671577 
L 305.74536 131.702352 
L 308.426987 131.732177 
L 311.108614 131.761091 
L 313.790241 131.789131 
L 316.471868 131.816327 
L 319.153494 131.842719 
L 321.835121 131.868335 
L 324.516748 131.893209 
L 327.198375 131.917362 
L 329.880002 131.940825 
L 332.561629 131.963619 
L 335.243256 131.985777 
L 337.924883 132.00732 
L 340.60651 132.028275 
L 343.288136 132.048651 
L 345.969763 132.068477 
L 348.65139 132.087763 
L 351.333017 132.106543 
L 354.014644 132.124828 
L 356.696271 132.142634 
L 359.377898 132.159987 
L 362.059525 132.176886 
L 364.741151 132.193355 
L 367.422778 132.209399 
L 370.104405 132.225049 
L 372.786032 132.240309 
L 375.467659 132.255193 
L 378.149286 132.269721 
L 380.830913 132.283888 
L 383.51254 132.297715 
L 386.194167 132.311203 
L 388.875793 132.324379 
L 391.55742 132.337244 
L 394.239047 132.34981 
L 396.920674 132.362092 
L 399.602301 132.374085 
L 402.283928 132.385804 
L 404.965555 132.397257 
L 407.647182 132.408447 
L 410.328808 132.419393 
L 413.010435 132.430097 
L 415.692062 132.440565 
L 418.373689 132.450805 
L 421.055316 132.46083 
L 423.736943 132.470632 
L 426.41857 132.480226 
L 429.100197 132.489615 
L 431.781823 132.498801 
L 434.46345 132.507801 
L 437.145077 132.516613 
L 439.826704 132.525244 
" style="fill:none;stroke:#000000;stroke-linecap:square;stroke-width:1.5;"/>
   </g>
   <g id="line2d_18">
    <path clip-path="url(#pa0377211e4)" d="M 45.627553 14.4 
L 48.30918 15.467362 
L 50.990806 18.557339 
L 53.672433 23.361811 
L 56.35406 29.448745 
L 59.035687 36.348983 
L 67.080568 58.013291 
L 69.762195 64.691576 
L 72.443822 70.877527 
L 75.125448 76.531996 
L 77.807075 81.653239 
L 80.488702 86.262976 
L 83.170329 90.39616 
L 85.851956 94.09396 
L 88.533583 97.399219 
L 91.21521 100.353703 
L 93.896837 102.99656 
L 96.578463 105.363573 
L 99.26009 107.486918 
L 101.941717 109.3952 
L 104.623344 111.113666 
L 107.304971 112.664491 
L 109.986598 114.067095 
L 115.349852 116.49341 
L 120.713105 118.504329 
L 126.076359 120.185301 
L 131.439613 121.601989 
L 136.802867 122.805184 
L 142.16612 123.83447 
L 150.211001 125.118543 
L 158.255882 126.159059 
L 168.982389 127.263472 
L 179.708897 128.12857 
L 193.117031 128.968408 
L 209.206792 129.726962 
L 227.978181 130.37872 
L 252.112822 130.97626 
L 281.610718 131.477192 
L 321.835121 131.92269 
L 378.149286 132.298635 
L 439.826704 132.541239 
L 439.826704 132.541239 
" style="fill:none;stroke:#000000;stroke-linecap:square;stroke-width:0.5;"/>
   </g>
   <g id="line2d_19">
    <path clip-path="url(#pa0377211e4)" d="M 101.941717 133.144 
L 104.623344 125.336447 
L 107.304971 119.364605 
L 109.986598 114.837822 
L 112.668225 111.450884 
L 115.349852 108.964187 
L 118.031478 107.188863 
L 120.713105 105.975514 
L 123.394732 105.205603 
L 126.076359 104.784848 
L 128.757986 104.638089 
L 131.439613 104.705303 
L 134.12124 104.938507 
L 136.802867 105.299292 
L 139.484494 105.756925 
L 142.16612 106.286792 
L 144.847747 106.869214 
L 147.529374 107.488444 
L 150.211001 108.131943 
L 152.892628 108.789723 
L 155.574255 109.453902 
L 158.255882 110.118244 
L 160.937509 110.777893 
L 163.619135 111.429048 
L 166.300762 112.068825 
L 168.982389 112.695032 
L 171.664016 113.306092 
L 174.345643 113.900855 
L 177.02727 114.478571 
L 179.708897 115.038746 
L 182.390524 115.581162 
L 185.07215 116.105779 
L 187.753777 116.612685 
L 190.435404 117.102137 
L 193.117031 117.574433 
L 195.798658 118.029972 
L 198.480285 118.469151 
L 201.161912 118.892451 
L 203.843539 119.300346 
L 206.525166 119.693373 
L 209.206792 120.072031 
L 211.888419 120.436836 
L 214.570046 120.78832 
L 217.251673 121.126955 
L 219.9333 121.453255 
L 222.614927 121.767689 
L 225.296554 122.07076 
L 227.978181 122.362914 
L 230.659807 122.644594 
L 233.341434 122.916243 
L 236.023061 123.178249 
L 238.704688 123.43102 
L 241.386315 123.674938 
L 244.067942 123.910356 
L 246.749569 124.137651 
L 249.431196 124.357147 
L 252.112822 124.569166 
L 254.794449 124.774026 
L 257.476076 124.972002 
L 260.157703 125.163383 
L 262.83933 125.348441 
L 265.520957 125.527421 
L 268.202584 125.700587 
L 270.884211 125.868165 
L 273.565838 126.030377 
L 276.247464 126.187445 
L 278.929091 126.339561 
L 281.610718 126.486924 
L 284.292345 126.629721 
L 286.973972 126.768127 
L 289.655599 126.902317 
L 292.337226 127.03245 
L 295.018853 127.158681 
L 297.700479 127.281158 
L 300.382106 127.400024 
L 303.063733 127.515412 
L 305.74536 127.627453 
L 308.426987 127.736269 
L 311.108614 127.841981 
L 313.790241 127.944698 
L 316.471868 128.044531 
L 319.153494 128.141584 
L 321.835121 128.235954 
L 324.516748 128.327733 
L 327.198375 128.417021 
L 329.880002 128.5039 
L 332.561629 128.588454 
L 335.243256 128.670763 
L 337.924883 128.750911 
L 340.60651 128.828957 
L 343.288136 128.90498 
L 345.969763 128.979047 
L 348.65139 129.051222 
L 351.333017 129.12156 
L 354.014644 129.190138 
L 356.696271 129.257004 
L 359.377898 129.322214 
L 362.059525 129.385822 
L 364.741151 129.447888 
L 367.422778 129.508441 
L 370.104405 129.56754 
L 372.786032 129.625228 
L 375.467659 129.681551 
L 378.149286 129.736549 
L 380.830913 129.790253 
L 383.51254 129.842722 
L 386.194167 129.893985 
L 388.875793 129.944077 
L 391.55742 129.993033 
L 394.239047 130.040898 
L 396.920674 130.087682 
L 399.602301 130.133427 
L 402.283928 130.178164 
L 404.965555 130.221921 
L 407.647182 130.264726 
L 410.328808 130.306593 
L 413.010435 130.347575 
L 415.692062 130.387683 
L 418.373689 130.426943 
L 421.055316 130.465377 
L 423.736943 130.503008 
L 426.41857 130.539872 
L 429.100197 130.575963 
L 431.781823 130.611316 
L 434.46345 130.645949 
L 437.145077 130.679882 
L 439.826704 130.713134 
" style="fill:none;stroke:#000000;stroke-dasharray:12,3,12,3;stroke-dashoffset:0;stroke-width:1.5;"/>
   </g>
   <g id="line2d_20">
    <path clip-path="url(#pa0377211e4)" d="M 45.627553 14.4 
L 48.30918 14.668652 
L 50.990806 15.467362 
L 53.672433 16.77488 
L 56.35406 18.557339 
L 59.035687 20.770386 
L 61.717314 23.361811 
L 64.398941 26.2744 
L 67.080568 29.448745 
L 72.443822 36.348983 
L 88.533583 58.013291 
L 93.896837 64.691576 
L 99.26009 70.877527 
L 104.623344 76.531996 
L 109.986598 81.653239 
L 115.349852 86.262976 
L 120.713105 90.39616 
L 126.076359 94.09396 
L 131.439613 97.399219 
L 136.802867 100.353703 
L 142.16612 102.99656 
L 147.529374 105.363573 
L 152.892628 107.486918 
L 158.255882 109.3952 
L 163.619135 111.113666 
L 171.664016 113.383206 
L 179.708897 115.338456 
L 187.753777 117.031353 
L 195.798658 118.504329 
L 206.525166 120.185301 
L 217.251673 121.601989 
L 227.978181 122.805184 
L 241.386315 124.068419 
L 254.794449 125.118543 
L 270.884211 126.159059 
L 289.655599 127.14009 
L 311.108614 128.031121 
L 335.243256 128.81801 
L 364.741151 129.557772 
L 402.283928 130.255632 
L 439.826704 130.76912 
L 439.826704 130.76912 
" style="fill:none;stroke:#000000;stroke-dasharray:8,2,8,2;stroke-dashoffset:0;stroke-width:0.5;"/>
   </g>
   <g id="line2d_21">
    <path clip-path="url(#pa0377211e4)" d="M 101.941717 133.144 
L 104.623344 124.915057 
L 107.304971 117.867417 
L 109.986598 111.837451 
L 112.668225 106.687816 
L 115.349852 102.302356 
L 118.031478 98.58203 
L 120.713105 95.442061 
L 123.394732 92.809289 
L 126.076359 90.620399 
L 128.757986 88.820313 
L 131.439613 87.360973 
L 134.12124 86.200315 
L 136.802867 85.301427 
L 139.484494 84.631842 
L 142.16612 84.162962 
L 144.847747 83.869551 
L 147.529374 83.72932 
L 150.211001 83.722558 
L 152.892628 83.831825 
L 155.574255 84.041689 
L 158.255882 84.33848 
L 160.937509 84.710093 
L 163.619135 85.145806 
L 166.300762 85.63613 
L 168.982389 86.172669 
L 171.664016 86.747981 
L 174.345643 87.3555 
L 177.02727 87.989421 
L 179.708897 88.644622 
L 182.390524 89.316586 
L 185.07215 90.001337 
L 187.753777 90.695369 
L 190.435404 91.395633 
L 193.117031 92.099432 
L 195.798658 92.804419 
L 198.480285 93.508548 
L 201.161912 94.21004 
L 203.843539 94.907357 
L 206.525166 95.599182 
L 209.206792 96.284355 
L 211.888419 96.961913 
L 214.570046 97.631033 
L 217.251673 98.291023 
L 219.9333 98.941308 
L 222.614927 99.581414 
L 225.296554 100.210945 
L 227.978181 100.829627 
L 230.659807 101.437218 
L 233.341434 102.03355 
L 236.023061 102.618508 
L 238.704688 103.192027 
L 241.386315 103.754084 
L 244.067942 104.304711 
L 246.749569 104.843917 
L 249.431196 105.371791 
L 252.112822 105.888428 
L 254.794449 106.393946 
L 257.476076 106.888478 
L 260.157703 107.372171 
L 262.83933 107.845166 
L 265.520957 108.307673 
L 268.202584 108.759851 
L 270.884211 109.201886 
L 273.565838 109.633971 
L 276.247464 110.056298 
L 278.929091 110.469068 
L 281.610718 110.872499 
L 284.292345 111.266754 
L 286.973972 111.652053 
L 289.655599 112.028595 
L 292.337226 112.396582 
L 295.018853 112.75621 
L 297.700479 113.107677 
L 300.382106 113.451178 
L 303.063733 113.78688 
L 305.74536 114.115017 
L 308.426987 114.435752 
L 311.108614 114.74927 
L 313.790241 115.055749 
L 316.471868 115.355365 
L 319.153494 115.648291 
L 321.835121 115.934694 
L 324.516748 116.214764 
L 327.198375 116.488618 
L 329.880002 116.756434 
L 332.561629 117.018366 
L 335.243256 117.274565 
L 337.924883 117.525176 
L 340.60651 117.770344 
L 343.288136 118.010207 
L 345.969763 118.24488 
L 348.65139 118.474536 
L 351.333017 118.699284 
L 354.014644 118.919249 
L 356.696271 119.134555 
L 359.377898 119.345318 
L 362.059525 119.551656 
L 364.741151 119.75368 
L 367.422778 119.9515 
L 370.104405 120.145243 
L 372.786032 120.334972 
L 375.467659 120.520808 
L 378.149286 120.702848 
L 380.830913 120.881188 
L 383.51254 121.055919 
L 386.194167 121.227133 
L 388.875793 121.394916 
L 391.55742 121.559354 
L 394.239047 121.720509 
L 396.920674 121.878501 
L 399.602301 122.033388 
L 402.283928 122.185247 
L 404.965555 122.334152 
L 407.647182 122.480174 
L 410.328808 122.623382 
L 413.010435 122.763846 
L 415.692062 122.901631 
L 418.373689 123.036819 
L 421.055316 123.169437 
L 423.736943 123.299563 
L 426.41857 123.427257 
L 429.100197 123.552575 
L 431.781823 123.675573 
L 434.46345 123.796306 
L 437.145077 123.914827 
L 439.826704 124.031186 
" style="fill:none;stroke:#000000;stroke-dasharray:9,3,9,3;stroke-dashoffset:0;stroke-width:1.5;"/>
   </g>
   <g id="line2d_22">
    <path clip-path="url(#pa0377211e4)" d="M 45.627553 14.4 
L 48.30918 14.467277 
L 50.990806 14.668652 
L 53.672433 15.002761 
L 56.35406 15.467362 
L 59.035687 16.059363 
L 61.717314 16.77488 
L 67.080568 18.557339 
L 72.443822 20.770386 
L 77.807075 23.361811 
L 83.170329 26.2744 
L 88.533583 29.448745 
L 96.578463 34.57251 
L 107.304971 41.794495 
L 126.076359 54.516216 
L 134.12124 59.724997 
L 142.16612 64.691576 
L 150.211001 69.380099 
L 158.255882 73.772 
L 166.300762 77.861758 
L 174.345643 81.653239 
L 182.390524 85.156734 
L 190.435404 88.386646 
L 198.480285 91.359756 
L 206.525166 94.09396 
L 214.570046 96.607385 
L 222.614927 98.917788 
L 230.659807 101.042174 
L 241.386315 103.612854 
L 252.112822 105.916076 
L 262.83933 107.983109 
L 273.565838 109.841695 
L 286.973972 111.908759 
L 300.382106 113.729373 
L 313.790241 115.338456 
L 329.880002 117.031353 
L 345.969763 118.504329 
L 364.741151 119.990818 
L 386.194167 121.437499 
L 407.647182 122.665016 
L 431.781823 123.83447 
L 439.826704 124.182189 
L 439.826704 124.182189 
" style="fill:none;stroke:#000000;stroke-dasharray:6,2,6,2;stroke-dashoffset:0;stroke-width:0.5;"/>
   </g>
   <g id="line2d_23">
    <path clip-path="url(#pa0377211e4)" d="M 101.941717 133.144 
L 104.623344 124.801716 
L 107.304971 117.435271 
L 109.986598 110.910242 
L 112.668225 105.115458 
L 115.349852 99.958218 
L 118.031478 95.360619 
L 120.713105 91.256795 
L 123.394732 87.590593 
L 126.076359 84.313905 
L 128.757986 81.385262 
L 131.439613 78.76872 
L 134.12124 76.432968 
L 136.802867 74.350594 
L 139.484494 72.497471 
L 142.16612 70.852343 
L 144.847747 69.396311 
L 147.529374 68.112562 
L 150.211001 66.986071 
L 152.892628 66.003368 
L 155.574255 65.152333 
L 158.255882 64.422031 
L 160.937509 63.802562 
L 163.619135 63.284945 
L 166.300762 62.861006 
L 168.982389 62.523293 
L 171.664016 62.264989 
L 174.345643 62.079855 
L 177.02727 61.962159 
L 179.708897 61.906634 
L 182.390524 61.908428 
L 185.07215 61.963038 
L 187.753777 62.066374 
L 190.435404 62.214588 
L 193.117031 62.404133 
L 195.798658 62.631724 
L 198.480285 62.894307 
L 201.161912 63.189049 
L 203.843539 63.513311 
L 206.525166 63.86464 
L 209.206792 64.240751 
L 211.888419 64.639515 
L 214.570046 65.058947 
L 217.251673 65.497196 
L 219.9333 65.952533 
L 222.614927 66.423348 
L 225.296554 66.908136 
L 227.978181 67.405492 
L 230.659807 67.914104 
L 233.341434 68.432747 
L 236.023061 68.960278 
L 238.704688 69.495628 
L 241.386315 70.037782 
L 244.067942 70.585846 
L 246.749569 71.138934 
L 249.431196 71.696236 
L 252.112822 72.256996 
L 254.794449 72.82051 
L 257.476076 73.386126 
L 260.157703 73.953225 
L 262.83933 74.521241 
L 265.520957 75.089646 
L 268.202584 75.657947 
L 270.884211 76.225689 
L 273.565838 76.792447 
L 276.247464 77.357829 
L 278.929091 77.921471 
L 281.610718 78.483036 
L 284.292345 79.042214 
L 286.973972 79.598717 
L 289.655599 80.152282 
L 292.337226 80.702666 
L 295.018853 81.249647 
L 297.700479 81.793019 
L 300.382106 82.332597 
L 303.063733 82.868211 
L 305.74536 83.399706 
L 308.426987 83.926943 
L 311.108614 84.449795 
L 313.790241 84.968139 
L 316.471868 85.481892 
L 319.153494 85.990956 
L 321.835121 86.49525 
L 324.516748 86.994706 
L 327.198375 87.489261 
L 329.880002 87.978865 
L 332.561629 88.463474 
L 335.243256 88.943051 
L 337.924883 89.417566 
L 340.60651 89.886998 
L 343.288136 90.35133 
L 345.969763 90.81055 
L 348.65139 91.264653 
L 351.333017 91.713638 
L 354.014644 92.157525 
L 356.696271 92.596293 
L 359.377898 93.029967 
L 362.059525 93.458564 
L 364.741151 93.882103 
L 367.422778 94.300606 
L 370.104405 94.714098 
L 372.786032 95.122607 
L 375.467659 95.526163 
L 378.149286 95.9248 
L 380.830913 96.318551 
L 383.51254 96.707454 
L 386.194167 97.091545 
L 388.875793 97.470866 
L 391.55742 97.845457 
L 394.239047 98.215343 
L 396.920674 98.580601 
L 399.602301 98.94126 
L 402.283928 99.297364 
L 404.965555 99.648961 
L 407.647182 99.996096 
L 410.328808 100.338818 
L 413.010435 100.677175 
L 415.692062 101.011214 
L 418.373689 101.340985 
L 421.055316 101.666537 
L 423.736943 101.987918 
L 426.41857 102.30518 
L 429.100197 102.61837 
L 431.781823 102.927539 
L 434.46345 103.232736 
L 437.145077 103.53401 
L 439.826704 103.831412 
" style="fill:none;stroke:#000000;stroke-dasharray:6,3,6,3;stroke-dashoffset:0;stroke-width:1.5;"/>
   </g>
   <g id="line2d_24">
    <path clip-path="url(#pa0377211e4)" d="M 45.627553 14.4 
L 53.672433 14.551266 
L 61.717314 15.002761 
L 69.762195 15.747662 
L 77.807075 16.77488 
L 85.851956 18.069468 
L 93.896837 19.613151 
L 101.941717 21.384941 
L 109.986598 23.361811 
L 120.713105 26.2744 
L 131.439613 29.448745 
L 144.847747 33.695019 
L 160.937509 39.055548 
L 214.570046 57.14784 
L 230.659807 62.241261 
L 246.749569 67.072108 
L 260.157703 70.877527 
L 273.565838 74.474603 
L 286.973972 77.861758 
L 300.382106 81.041664 
L 313.790241 84.020075 
L 327.198375 86.804878 
L 343.288136 89.904197 
L 359.377898 92.755585 
L 375.467659 95.377146 
L 391.55742 97.78688 
L 410.328808 100.353703 
L 429.100197 102.681987 
L 439.826704 103.914708 
L 439.826704 103.914708 
" style="fill:none;stroke:#000000;stroke-dasharray:4,2,4,2;stroke-dashoffset:0;stroke-width:0.5;"/>
   </g>
   <g id="line2d_25">
    <path clip-path="url(#pa0377211e4)" d="M 101.941717 133.144 
L 104.623344 124.77284 
L 107.304971 117.322994 
L 109.986598 110.664452 
L 112.668225 104.689964 
L 115.349852 99.31036 
L 118.031478 94.450958 
L 120.713105 90.048779 
L 123.394732 86.050428 
L 126.076359 82.4103 
L 128.757986 79.089283 
L 131.439613 76.053647 
L 134.12124 73.274167 
L 136.802867 70.725411 
L 139.484494 68.385149 
L 142.16612 66.233878 
L 144.847747 64.254418 
L 147.529374 62.431549 
L 150.211001 60.751871 
L 152.892628 59.203368 
L 155.574255 57.775347 
L 158.255882 56.458233 
L 160.937509 55.243432 
L 163.619135 54.12321 
L 166.300762 53.090585 
L 168.982389 52.139242 
L 171.664016 51.263455 
L 174.345643 50.458019 
L 177.02727 49.718191 
L 179.708897 49.039644 
L 182.390524 48.418417 
L 185.07215 47.850881 
L 187.753777 47.333702 
L 190.435404 46.863813 
L 193.117031 46.438388 
L 195.798658 46.054814 
L 198.480285 45.710677 
L 201.161912 45.403738 
L 203.843539 45.131922 
L 206.525166 44.893297 
L 209.206792 44.686066 
L 211.888419 44.508554 
L 214.570046 44.359196 
L 217.251673 44.236529 
L 219.9333 44.139184 
L 222.614927 44.065791 
L 225.296554 44.015313 
L 227.978181 43.986535 
L 230.659807 43.97839 
L 233.341434 43.989875 
L 236.023061 44.020043 
L 238.704688 44.067997 
L 241.386315 44.132894 
L 244.067942 44.213932 
L 246.749569 44.310354 
L 249.431196 44.421416 
L 252.112822 44.546484 
L 254.794449 44.684886 
L 257.476076 44.836007 
L 260.157703 44.999261 
L 262.83933 45.174088 
L 265.520957 45.359956 
L 268.202584 45.556359 
L 270.884211 45.762811 
L 273.565838 45.978849 
L 276.247464 46.204031 
L 278.929091 46.437933 
L 281.610718 46.680151 
L 284.292345 46.930296 
L 286.973972 47.187997 
L 289.655599 47.452896 
L 292.337226 47.724653 
L 295.018853 48.002938 
L 297.700479 48.287437 
L 300.382106 48.577846 
L 303.063733 48.873876 
L 305.74536 49.175245 
L 308.426987 49.481686 
L 311.108614 49.792939 
L 313.790241 50.108754 
L 316.471868 50.428893 
L 319.153494 50.753124 
L 321.835121 51.081301 
L 324.516748 51.413058 
L 327.198375 51.748264 
L 329.880002 52.086719 
L 332.561629 52.42823 
L 335.243256 52.772613 
L 337.924883 53.119689 
L 340.60651 53.469286 
L 343.288136 53.821237 
L 345.969763 54.175381 
L 348.65139 54.531564 
L 351.333017 54.889636 
L 354.014644 55.249453 
L 356.696271 55.610875 
L 359.377898 55.973651 
L 362.059525 56.337883 
L 364.741151 56.703332 
L 367.422778 57.069875 
L 370.104405 57.437396 
L 372.786032 57.805782 
L 375.467659 58.174925 
L 378.149286 58.544719 
L 380.830913 58.915064 
L 383.51254 59.28586 
L 386.194167 59.657014 
L 388.875793 60.028434 
L 391.55742 60.400033 
L 394.239047 60.771726 
L 396.920674 61.14343 
L 399.602301 61.515067 
L 402.283928 61.886561 
L 404.965555 62.257838 
L 407.647182 62.628828 
L 410.328808 62.999463 
L 413.010435 63.369676 
L 415.692062 63.739404 
L 418.373689 64.108587 
L 421.055316 64.477166 
L 423.736943 64.845084 
L 426.41857 65.212288 
L 429.100197 65.578723 
L 431.781823 65.944341 
L 434.46345 66.309094 
L 437.145077 66.672933 
L 439.826704 67.035816 
" style="fill:none;stroke:#000000;stroke-dasharray:3,3,3,3;stroke-dashoffset:0;stroke-width:1.5;"/>
   </g>
   <g id="line2d_26">
    <path clip-path="url(#pa0377211e4)" d="M 45.627553 14.4 
L 59.035687 14.505087 
L 72.443822 14.819235 
L 85.851956 15.339133 
L 99.26009 16.059363 
L 112.668225 16.972533 
L 128.757986 18.309987 
L 144.847747 19.893209 
L 160.937509 21.700823 
L 179.708897 24.062153 
L 198.480285 26.658102 
L 219.9333 29.860982 
L 244.067942 33.695019 
L 276.247464 39.055548 
L 383.51254 57.14784 
L 415.692062 62.241261 
L 439.826704 65.890761 
L 439.826704 65.890761 
" style="fill:none;stroke:#000000;stroke-dasharray:2,2,2,2;stroke-dashoffset:0;stroke-width:0.5;"/>
   </g>
   <g id="line2d_27">
    <path clip-path="url(#pa0377211e4)" d="M 101.941717 133.144 
L 104.623344 124.765586 
L 107.304971 117.294649 
L 109.986598 110.602072 
L 112.668225 104.581382 
L 115.349852 99.144084 
L 118.031478 94.216089 
L 120.713105 89.734959 
L 123.394732 85.647747 
L 126.076359 81.9093 
L 128.757986 78.480889 
L 131.439613 75.32914 
L 134.12124 72.42516 
L 136.802867 69.743823 
L 139.484494 67.263186 
L 142.16612 64.964014 
L 144.847747 62.829383 
L 147.529374 60.84435 
L 150.211001 58.995677 
L 152.892628 57.271603 
L 155.574255 55.661595 
L 158.255882 54.156378 
L 160.937509 52.747511 
L 163.619135 51.427451 
L 166.300762 50.189404 
L 168.982389 49.027236 
L 171.664016 47.935398 
L 174.345643 46.908858 
L 177.02727 45.943046 
L 179.708897 45.033799 
L 182.390524 44.177321 
L 185.07215 43.370145 
L 187.753777 42.609094 
L 190.435404 41.891259 
L 193.117031 41.213965 
L 195.798658 40.574753 
L 198.480285 39.971358 
L 201.161912 39.401688 
L 203.843539 38.863814 
L 206.525166 38.355948 
L 209.206792 37.876435 
L 211.888419 37.423739 
L 214.570046 36.996435 
L 217.251673 36.593196 
L 219.9333 36.212786 
L 222.614927 35.854056 
L 225.296554 35.515932 
L 227.978181 35.197409 
L 230.659807 34.89755 
L 233.341434 34.615477 
L 236.023061 34.350245 
L 238.704688 34.10132 
L 241.386315 33.867861 
L 244.067942 33.649186 
L 246.749569 33.444654 
L 249.431196 33.253663 
L 252.112822 33.075644 
L 254.794449 32.91006 
L 257.476076 32.756405 
L 260.157703 32.614202 
L 262.83933 32.482997 
L 265.520957 32.362363 
L 268.202584 32.251895 
L 270.884211 32.151209 
L 273.565838 32.05994 
L 276.247464 31.977744 
L 278.929091 31.904291 
L 281.610718 31.839269 
L 284.292345 31.782381 
L 286.973972 31.733346 
L 289.655599 31.691893 
L 292.337226 31.657766 
L 295.018853 31.630721 
L 297.700479 31.610523 
L 300.382106 31.59695 
L 303.063733 31.589788 
L 305.74536 31.588834 
L 308.426987 31.593892 
L 311.108614 31.604777 
L 313.790241 31.621308 
L 316.471868 31.643314 
L 319.153494 31.670632 
L 321.835121 31.703102 
L 324.516748 31.740574 
L 327.198375 31.782902 
L 329.880002 31.829946 
L 332.561629 31.881571 
L 335.243256 31.937648 
L 337.924883 31.998051 
L 340.60651 32.062662 
L 343.288136 32.131363 
L 345.969763 32.204043 
L 348.65139 32.280595 
L 351.333017 32.360915 
L 354.014644 32.444901 
L 356.696271 32.532458 
L 359.377898 32.62349 
L 362.059525 32.717908 
L 364.741151 32.815624 
L 367.422778 32.916551 
L 370.104405 33.02061 
L 372.786032 33.127718 
L 375.467659 33.2378 
L 378.149286 33.35078 
L 380.830913 33.466585 
L 383.51254 33.585146 
L 386.194167 33.706204 
L 388.875793 33.830067 
L 391.55742 33.956487 
L 394.239047 34.085398 
L 396.920674 34.216741 
L 399.602301 34.350455 
L 402.283928 34.486484 
L 404.965555 34.62477 
L 407.647182 34.765259 
L 410.328808 34.907897 
L 413.010435 35.052633 
L 415.692062 35.199415 
L 418.373689 35.348194 
L 421.055316 35.498922 
L 423.736943 35.651552 
L 426.41857 35.806037 
L 429.100197 35.962333 
L 431.781823 36.120397 
L 434.46345 36.280184 
L 437.145077 36.441654 
L 439.826704 36.604766 
" style="fill:none;stroke:#000000;stroke-linecap:square;stroke-width:1.5;"/>
   </g>
   <g id="line2d_28">
    <path clip-path="url(#pa0377211e4)" d="M 45.627553 14.4 
L 72.443822 14.505087 
L 99.26009 14.819235 
L 126.076359 15.339133 
L 155.574255 16.142136 
L 185.07215 17.177541 
L 214.570046 18.432815 
L 246.749569 20.035584 
L 278.929091 21.860867 
L 313.790241 24.062153 
L 351.333017 26.658102 
L 394.239047 29.860982 
L 439.826704 33.476905 
L 439.826704 33.476905 
" style="fill:none;stroke:#000000;stroke-linecap:square;stroke-width:0.5;"/>
   </g>
   <g id="line2d_29">
    <path clip-path="url(#pa0377211e4)" d="M 101.941717 133.144 
L 104.623344 124.763251 
L 107.304971 117.285295 
L 109.986598 110.581299 
L 112.668225 104.545027 
L 115.349852 99.088187 
L 118.031478 94.136868 
L 120.713105 89.628785 
L 123.394732 85.511125 
L 126.076359 81.738848 
L 128.757986 78.273339 
L 131.439613 75.081325 
L 134.12124 72.134 
L 136.802867 69.40632 
L 139.484494 66.880246 
L 142.16612 64.529592 
L 144.847747 62.340718 
L 147.529374 60.298735 
L 150.211001 58.390456 
L 152.892628 56.604165 
L 155.574255 54.929422 
L 158.255882 53.356899 
L 160.937509 51.878237 
L 163.619135 50.48593 
L 166.300762 49.173216 
L 168.982389 47.933996 
L 171.664016 46.762751 
L 174.345643 45.654479 
L 177.02727 44.606284 
L 179.708897 43.610911 
L 182.390524 42.666072 
L 185.07215 41.768325 
L 187.753777 40.914517 
L 190.435404 40.101762 
L 193.117031 39.327409 
L 195.798658 38.589021 
L 198.480285 37.884354 
L 201.161912 37.21134 
L 203.843539 36.568067 
L 206.525166 35.95277 
L 209.206792 35.363813 
L 211.888419 34.79968 
L 214.570046 34.258966 
L 217.251673 33.740362 
L 219.9333 33.242653 
L 222.614927 32.764708 
L 225.296554 32.305469 
L 227.978181 31.863953 
L 230.659807 31.43924 
L 233.341434 31.030469 
L 236.023061 30.636835 
L 238.704688 30.257583 
L 241.386315 29.892008 
L 244.067942 29.539444 
L 246.749569 29.199269 
L 249.431196 28.871405 
L 252.112822 28.554332 
L 254.794449 28.247994 
L 257.476076 27.951901 
L 260.157703 27.665592 
L 262.83933 27.388632 
L 265.520957 27.120612 
L 268.202584 26.861141 
L 270.884211 26.609853 
L 273.565838 26.366402 
L 276.247464 26.130457 
L 278.929091 25.901708 
L 281.610718 25.679859 
L 284.292345 25.464631 
L 286.973972 25.242227 
L 289.655599 25.039132 
L 292.337226 24.841901 
L 295.018853 24.650306 
L 297.700479 24.46413 
L 300.382106 24.283168 
L 303.063733 24.107222 
L 305.74536 23.936107 
L 308.426987 23.769643 
L 311.108614 23.60766 
L 313.790241 23.449996 
L 316.471868 23.313417 
L 319.153494 23.164222 
L 321.835121 23.018897 
L 324.516748 22.877309 
L 327.198375 22.739327 
L 329.880002 22.604829 
L 332.561629 22.473695 
L 335.243256 22.345813 
L 337.924883 22.221074 
L 340.60651 22.099375 
L 343.288136 21.980615 
L 345.969763 21.864699 
L 348.65139 21.751535 
L 351.333017 21.641036 
L 354.014644 21.533118 
L 356.696271 21.427699 
L 359.377898 21.324701 
L 362.059525 21.22405 
L 364.741151 21.125673 
L 367.422778 21.029503 
L 370.104405 20.935471 
L 372.786032 20.843515 
L 375.467659 20.753573 
L 378.149286 20.665585 
L 380.830913 20.579495 
L 383.51254 20.495247 
L 386.194167 20.412788 
L 388.875793 20.332068 
L 391.55742 20.253216 
L 394.239047 20.175846 
L 396.920674 20.100072 
L 399.602301 20.02585 
L 402.283928 19.953137 
L 404.965555 19.881893 
L 407.647182 19.812078 
L 410.328808 19.743653 
L 413.010435 19.676582 
L 415.692062 19.610827 
L 418.373689 19.546355 
L 421.055316 19.483133 
L 423.736943 19.421127 
L 426.41857 19.360306 
L 429.100197 19.300641 
L 431.781823 19.242101 
L 434.46345 19.184659 
L 437.145077 19.128286 
L 439.826704 19.072956 
" style="fill:none;stroke:#000000;stroke-linecap:square;stroke-width:1.5;"/>
   </g>
   <g id="line2d_30">
    <path clip-path="url(#pa0377211e4)" d="M 45.627553 14.4 
L 439.826704 14.423269 
L 439.826704 14.423269 
" style="fill:none;stroke:#000000;stroke-linecap:square;stroke-width:0.5;"/>
   </g>
   <g id="patch_3">
    <path d="M 45.627553 133.144 
L 45.627553 14.4 
" style="fill:none;stroke:#808080;stroke-linecap:square;stroke-linejoin:miter;stroke-width:0.5;"/>
   </g>
   <g id="patch_4">
    <path d="M 45.627553 133.144 
L 439.826704 133.144 
" style="fill:none;stroke:#808080;stroke-linecap:square;stroke-linejoin:miter;stroke-width:0.5;"/>
   </g>
  </g>
  <g id="axes_2">
   <g id="patch_5">
    <path d="M 45.627553 300.544 
L 439.826704 300.544 
L 439.826704 181.8 
L 45.627553 181.8 
z
" style="fill:#ffffff;"/>
   </g>
   <g id="matplotlib.axis_3">
    <g id="xtick_9">
     <g id="line2d_31">
      <g>
       <use style="stroke:#000000;stroke-width:0.8;" x="45.627553" xlink:href="#m7286a45697" y="300.544"/>
      </g>
     </g>
     <g id="text_8">
      <!-- 0 -->
      <g transform="translate(42.446303 315.142437)scale(0.1 -0.1)">
       <use xlink:href="#DejaVuSans-48"/>
      </g>
     </g>
    </g>
    <g id="xtick_10">
     <g id="line2d_32">
      <g>
       <use style="stroke:#000000;stroke-width:0.8;" x="101.941717" xlink:href="#m7286a45697" y="300.544"/>
      </g>
     </g>
     <g id="text_9">
      <!-- $\omega_g$ -->
      <g transform="translate(95.391717 314.122125)scale(0.1 -0.1)">
       <use transform="translate(0 0.3125)" xlink:href="#DejaVuSans-Oblique-969"/>
       <use transform="translate(83.740234 -16.09375)scale(0.7)" xlink:href="#DejaVuSans-Oblique-103"/>
      </g>
     </g>
    </g>
    <g id="xtick_11">
     <g id="line2d_33">
      <g>
       <use style="stroke:#000000;stroke-width:0.8;" x="158.255882" xlink:href="#m7286a45697" y="300.544"/>
      </g>
     </g>
    </g>
    <g id="xtick_12">
     <g id="line2d_34">
      <g>
       <use style="stroke:#000000;stroke-width:0.8;" x="214.570046" xlink:href="#m7286a45697" y="300.544"/>
      </g>
     </g>
    </g>
    <g id="xtick_13">
     <g id="line2d_35">
      <g>
       <use style="stroke:#000000;stroke-width:0.8;" x="270.884211" xlink:href="#m7286a45697" y="300.544"/>
      </g>
     </g>
    </g>
    <g id="xtick_14">
     <g id="line2d_36">
      <g>
       <use style="stroke:#000000;stroke-width:0.8;" x="327.198375" xlink:href="#m7286a45697" y="300.544"/>
      </g>
     </g>
    </g>
    <g id="xtick_15">
     <g id="line2d_37">
      <g>
       <use style="stroke:#000000;stroke-width:0.8;" x="383.51254" xlink:href="#m7286a45697" y="300.544"/>
      </g>
     </g>
    </g>
    <g id="xtick_16">
     <g id="line2d_38">
      <g>
       <use style="stroke:#000000;stroke-width:0.8;" x="439.826704" xlink:href="#m7286a45697" y="300.544"/>
      </g>
     </g>
     <g id="text_10">
      <!-- $7 \omega_g$ -->
      <g transform="translate(430.076704 314.844)scale(0.1 -0.1)">
       <use transform="translate(0 0.09375)" xlink:href="#DejaVuSans-55"/>
       <use transform="translate(63.623047 0.09375)" xlink:href="#DejaVuSans-Oblique-969"/>
       <use transform="translate(147.363281 -16.3125)scale(0.7)" xlink:href="#DejaVuSans-Oblique-103"/>
      </g>
     </g>
    </g>
    <g id="text_11">
     <!-- Frequency -->
     <g transform="translate(216.897441 329.542438)scale(0.1 -0.1)">
      <use xlink:href="#DejaVuSans-70"/>
      <use x="50.269531" xlink:href="#DejaVuSans-114"/>
      <use x="89.132812" xlink:href="#DejaVuSans-101"/>
      <use x="150.65625" xlink:href="#DejaVuSans-113"/>
      <use x="214.132812" xlink:href="#DejaVuSans-117"/>
      <use x="277.511719" xlink:href="#DejaVuSans-101"/>
      <use x="339.035156" xlink:href="#DejaVuSans-110"/>
      <use x="402.414062" xlink:href="#DejaVuSans-99"/>
      <use x="457.394531" xlink:href="#DejaVuSans-121"/>
     </g>
    </g>
   </g>
   <g id="matplotlib.axis_4">
    <g id="ytick_3">
     <g id="line2d_39">
      <g>
       <use style="stroke:#000000;stroke-width:0.8;" x="45.627553" xlink:href="#md505879fec" y="300.544"/>
      </g>
     </g>
     <g id="text_12">
      <!-- 0 -->
      <g transform="translate(32.265053 304.343219)scale(0.1 -0.1)">
       <use xlink:href="#DejaVuSans-48"/>
      </g>
     </g>
    </g>
    <g id="ytick_4">
     <g id="line2d_40">
      <g>
       <use style="stroke:#000000;stroke-width:0.8;" x="45.627553" xlink:href="#md505879fec" y="181.8"/>
      </g>
     </g>
     <g id="text_13">
      <!-- $\sigma_0$ -->
      <g transform="translate(27.527553 185.599219)scale(0.1 -0.1)">
       <use transform="translate(0 0.265625)" xlink:href="#DejaVuSans-Oblique-963"/>
       <use transform="translate(63.378906 -16.140625)scale(0.7)" xlink:href="#DejaVuSans-48"/>
      </g>
     </g>
    </g>
    <g id="text_14">
     <!-- $\Im\{\sigma_{sc}\}$ -->
     <g transform="translate(21.447865 258.122)rotate(-90)scale(0.1 -0.1)">
      <defs>
       <path d="M 5.171875 4.390625 
L 12.015625 12.453125 
Q 17.4375 14.359375 23.140625 14.359375 
Q 25.921875 14.359375 32.375 10.453125 
Q 39.40625 6.25 41.015625 6.25 
Q 46.921875 6.25 51.8125 12.9375 
Q 55.28125 17.671875 55.28125 21.34375 
Q 55.28125 27.484375 52.25 32.953125 
Q 48.34375 40.09375 48.34375 45.40625 
Q 48.34375 50.296875 52.25 58.109375 
L 62.640625 64.9375 
Q 58.734375 58.15625 58.734375 52.25 
Q 58.734375 47.015625 62.640625 39.796875 
Q 65.234375 35.015625 65.234375 25.828125 
Q 65.234375 21.234375 55.375 9.421875 
Q 46.296875 -1.421875 34.46875 -1.421875 
Q 31.84375 -1.421875 25.53125 2.4375 
Q 19.046875 6.34375 16.3125 6.34375 
Q 11.71875 6.34375 5.171875 4.390625 
z
M 17.09375 71.484375 
Q 22.40625 74.21875 29.296875 74.21875 
Q 35.296875 74.21875 41.5 71.828125 
Q 47.46875 69.53125 53.71875 69.53125 
Q 59.8125 69.53125 65.921875 72.359375 
L 56.15625 64.0625 
Q 49.359375 61.234375 43.953125 61.234375 
Q 36.96875 61.234375 31.734375 63.625 
Q 26.515625 66.015625 19.53125 66.015625 
Q 13.578125 66.015625 7.328125 63.1875 
z
" id="DejaVuSans-Oblique-8465"/>
      </defs>
      <use transform="translate(0 0.015625)" xlink:href="#DejaVuSans-Oblique-8465"/>
      <use transform="translate(69.726562 0.015625)" xlink:href="#DejaVuSans-123"/>
      <use transform="translate(133.349609 0.015625)" xlink:href="#DejaVuSans-Oblique-963"/>
      <use transform="translate(196.728516 -16.390625)scale(0.7)" xlink:href="#DejaVuSans-Oblique-115"/>
      <use transform="translate(233.198242 -16.390625)scale(0.7)" xlink:href="#DejaVuSans-Oblique-99"/>
      <use transform="translate(274.418945 0.015625)" xlink:href="#DejaVuSans-125"/>
     </g>
    </g>
   </g>
   <g id="line2d_41">
    <path clip-path="url(#pa2753412e7)" d="M 48.30918 151.965914 
L 50.990806 226.253024 
L 53.672433 251.033102 
L 56.35406 263.421393 
L 59.035687 270.857046 
L 61.717314 275.816486 
L 64.398941 279.361207 
L 67.080568 282.021929 
L 69.762195 284.093575 
L 72.443822 285.753172 
L 75.125448 287.113464 
L 77.807075 288.249728 
L 80.488702 289.214268 
L 85.851956 290.768606 
L 91.21521 291.979661 
L 99.26009 293.467137 
L 101.941717 294.316776 
L 104.623344 294.139977 
L 109.986598 294.430122 
L 128.757986 295.625907 
L 144.847747 296.382904 
L 163.619135 297.026923 
L 187.753777 297.615243 
L 219.9333 298.151587 
L 262.83933 298.622173 
L 321.835121 299.031788 
L 407.647182 299.389876 
L 439.826704 299.484027 
L 439.826704 299.484027 
" style="fill:none;stroke:#000000;stroke-linecap:square;stroke-width:1.5;"/>
   </g>
   <g id="line2d_42">
    <path clip-path="url(#pa2753412e7)" d="M 48.30918 16.538614 
L 50.990806 158.573104 
L 53.672433 205.932355 
L 56.35406 229.623272 
L 59.035687 243.847371 
L 61.717314 253.338646 
L 64.398941 260.126117 
L 67.080568 265.22447 
L 69.762195 269.197626 
L 72.443822 272.38418 
L 75.125448 274.999901 
L 77.807075 277.18903 
L 80.488702 279.05193 
L 83.170329 280.661041 
L 85.851956 282.07058 
L 91.21521 284.453745 
L 99.26009 287.525414 
L 101.941717 289.361493 
L 104.623344 289.082138 
L 107.304971 289.033302 
L 112.668225 289.371874 
L 144.847747 292.352401 
L 158.255882 293.262307 
L 174.345643 294.132797 
L 193.117031 294.925439 
L 217.251673 295.70101 
L 246.749569 296.403051 
L 284.292345 297.049737 
L 332.561629 297.63499 
L 394.239047 298.148327 
L 439.826704 298.424896 
L 439.826704 298.424896 
" style="fill:none;stroke:#000000;stroke-dasharray:3,3,3,3;stroke-dashoffset:0;stroke-width:1.5;"/>
   </g>
   <g id="line2d_43">
    <path clip-path="url(#pa2753412e7)" d="M 50.574667 -1 
L 50.990806 39.536037 
L 53.672433 126.656266 
L 56.35406 170.25335 
L 59.035687 196.442844 
L 61.717314 213.930348 
L 64.398941 226.447306 
L 67.080568 235.859983 
L 69.762195 243.205791 
L 72.443822 249.107887 
L 75.125448 253.963692 
L 77.807075 258.039282 
L 80.488702 261.520272 
L 83.170329 264.541319 
L 85.851956 267.204144 
L 88.533583 269.589746 
L 93.896837 273.808307 
L 99.26009 277.926015 
L 101.941717 281.490781 
L 104.623344 282.01769 
L 107.304971 281.429055 
L 109.986598 281.15714 
L 112.668225 281.114125 
L 118.031478 281.427485 
L 126.076359 282.347372 
L 152.892628 285.800414 
L 166.300762 287.22967 
L 179.708897 288.439756 
L 195.798658 289.65131 
L 214.570046 290.804604 
L 236.023061 291.864999 
L 260.157703 292.817685 
L 289.655599 293.735477 
L 324.516748 294.576163 
L 367.422778 295.365125 
L 418.373689 296.068885 
L 439.826704 296.311276 
L 439.826704 296.311276 
" style="fill:none;stroke:#000000;stroke-dasharray:6,3,6,3;stroke-dashoffset:0;stroke-width:1.5;"/>
   </g>
   <g id="line2d_44">
    <path clip-path="url(#pa2753412e7)" d="M 53.644226 -1 
L 53.672433 0.582919 
L 56.35406 75.930076 
L 59.035687 121.226668 
L 61.717314 151.502503 
L 64.398941 173.200151 
L 67.080568 189.54219 
L 69.762195 202.320383 
L 72.443822 212.611461 
L 75.125448 221.102627 
L 77.807075 228.25452 
L 80.488702 234.389417 
L 83.170329 239.741756 
L 85.851956 244.489956 
L 88.533583 248.777443 
L 91.21521 252.729941 
L 99.26009 264.140799 
L 101.941717 270.184363 
L 104.623344 273.44425 
L 107.304971 273.202986 
L 112.668225 271.843723 
L 115.349852 271.319031 
L 118.031478 270.957086 
L 120.713105 270.746217 
L 126.076359 270.694293 
L 131.439613 271.00029 
L 136.802867 271.53602 
L 144.847747 272.582064 
L 190.435404 279.014413 
L 206.525166 280.850469 
L 222.614927 282.437834 
L 238.704688 283.811276 
L 257.476076 285.188524 
L 278.929091 286.521667 
L 303.063733 287.778758 
L 329.880002 288.94177 
L 359.377898 290.003195 
L 394.239047 291.035129 
L 434.46345 292.002815 
L 439.826704 292.11731 
L 439.826704 292.11731 
" style="fill:none;stroke:#000000;stroke-linecap:square;stroke-width:1.5;"/>
   </g>
   <g id="line2d_45">
    <path clip-path="url(#pa2753412e7)" d="M 58.315157 -1 
L 59.035687 18.25448 
L 61.717314 66.206628 
L 64.398941 100.621267 
L 67.080568 126.586145 
L 69.762195 146.930408 
L 72.443822 163.354581 
L 75.125448 176.944388 
L 77.807075 188.428017 
L 80.488702 198.31514 
L 83.170329 206.97736 
L 85.851956 214.697119 
L 88.533583 221.701498 
L 91.21521 228.188565 
L 99.26009 246.88276 
L 101.941717 255.804241 
L 104.623344 262.671703 
L 107.304971 264.906056 
L 109.986598 265.581067 
L 112.668225 265.483038 
L 115.349852 264.990353 
L 120.713105 263.569105 
L 126.076359 262.14646 
L 131.439613 260.999258 
L 136.802867 260.19546 
L 142.16612 259.721095 
L 147.529374 259.5329 
L 152.892628 259.580656 
L 158.255882 259.816641 
L 166.300762 260.434013 
L 174.345643 261.26947 
L 187.753777 262.932655 
L 241.386315 269.915621 
L 260.157703 272.026496 
L 278.929091 273.921496 
L 300.382106 275.843203 
L 321.835121 277.534998 
L 345.969763 279.202827 
L 372.786032 280.810634 
L 402.283928 282.333887 
L 434.46345 283.758029 
L 439.826704 283.974786 
L 439.826704 283.974786 
" style="fill:none;stroke:#000000;stroke-dasharray:12,3,12,3;stroke-dashoffset:0;stroke-width:1.5;"/>
   </g>
   <g id="line2d_46">
    <path clip-path="url(#pa2753412e7)" d="M 63.352975 -1 
L 64.398941 18.142126 
L 67.080568 55.222681 
L 69.762195 84.324706 
L 72.443822 107.862731 
L 75.125448 127.378201 
L 77.807075 143.904667 
L 80.488702 158.165479 
L 83.170329 170.685481 
L 85.851956 181.864568 
L 88.533583 192.020288 
L 91.21521 201.425286 
L 99.26009 228.147131 
L 101.941717 239.824801 
L 104.623344 249.814601 
L 107.304971 254.992351 
L 109.986598 258.224103 
L 112.668225 260.24838 
L 115.349852 261.451405 
L 118.031478 262.07324 
L 120.713105 262.276288 
L 123.394732 262.176062 
L 126.076359 261.857348 
L 131.439613 260.802816 
L 139.484494 258.747317 
L 150.211001 255.982205 
L 158.255882 254.213483 
L 163.619135 253.231038 
L 168.982389 252.412284 
L 174.345643 251.75316 
L 182.390524 251.043889 
L 190.435404 250.634324 
L 198.480285 250.481333 
L 206.525166 250.5429 
L 217.251673 250.892922 
L 227.978181 251.47813 
L 241.386315 252.444503 
L 260.157703 254.071154 
L 289.655599 256.905998 
L 335.243256 261.261835 
L 364.741151 263.852605 
L 394.239047 266.216384 
L 423.736943 268.354481 
L 439.826704 269.430822 
L 439.826704 269.430822 
" style="fill:none;stroke:#000000;stroke-dasharray:9,3,9,3;stroke-dashoffset:0;stroke-width:1.5;"/>
   </g>
   <g id="line2d_47">
    <path clip-path="url(#pa2753412e7)" d="M 67.877066 -1 
L 69.762195 25.332931 
L 72.443822 55.66216 
L 75.125448 80.834703 
L 77.807075 102.17274 
L 80.488702 120.600015 
L 83.170329 136.786944 
L 85.851956 151.252 
L 88.533583 164.358975 
L 91.21521 176.481797 
L 99.26009 210.398475 
L 101.941717 224.33121 
L 104.623344 236.640618 
L 107.304971 244.08805 
L 109.986598 249.483766 
L 112.668225 253.542902 
L 115.349852 256.640172 
L 118.031478 259.01035 
L 120.713105 260.814331 
L 123.394732 262.168967 
L 126.076359 263.161942 
L 128.757986 263.860908 
L 131.439613 264.319146 
L 134.12124 264.579179 
L 136.802867 264.675547 
L 139.484494 264.636488 
L 144.847747 264.241617 
L 150.211001 263.538811 
L 155.574255 262.630339 
L 163.619135 261.03797 
L 198.480285 253.772802 
L 209.206792 251.886734 
L 219.9333 250.247567 
L 230.659807 248.860226 
L 241.386315 247.717406 
L 252.112822 246.80483 
L 262.83933 246.104419 
L 273.565838 245.59634 
L 286.973972 245.201118 
L 300.382106 245.037031 
L 316.471868 245.095842 
L 332.561629 245.382572 
L 351.333017 245.943081 
L 372.786032 246.806931 
L 399.602301 248.116381 
L 437.145077 250.19551 
L 439.826704 250.350238 
L 439.826704 250.350238 
" style="fill:none;stroke:#000000;stroke-dasharray:6,3,6,3;stroke-dashoffset:0;stroke-width:1.5;"/>
   </g>
   <g id="line2d_48">
    <path clip-path="url(#pa2753412e7)" d="M 71.358877 -1 
L 72.443822 13.488409 
L 75.125448 43.221174 
L 77.807075 68.430802 
L 80.488702 90.202336 
L 83.170329 109.321955 
L 85.851956 126.381352 
L 88.533583 141.844971 
L 91.21521 156.100797 
L 96.578463 182.447286 
L 99.26009 195.515665 
L 101.941717 211.083969 
L 104.623344 224.989777 
L 107.304971 233.973075 
L 109.986598 240.840229 
L 112.668225 246.306636 
L 115.349852 250.748801 
L 118.031478 254.403591 
L 120.713105 257.434517 
L 123.394732 259.960524 
L 126.076359 262.071413 
L 128.757986 263.836839 
L 131.439613 265.311103 
L 134.12124 266.53994 
L 136.802867 267.558659 
L 139.484494 268.397198 
L 142.16612 269.079743 
L 144.847747 269.627257 
L 150.211001 270.384505 
L 155.574255 270.780089 
L 160.937509 270.896039 
L 166.300762 270.794088 
L 174.345643 270.332928 
L 182.390524 269.602891 
L 193.117031 268.350262 
L 206.525166 266.514968 
L 230.659807 262.911049 
L 260.157703 258.563597 
L 278.929091 256.009276 
L 297.700479 253.678391 
L 316.471868 251.591286 
L 335.243256 249.75288 
L 354.014644 248.158881 
L 372.786032 246.799327 
L 391.55742 245.660957 
L 410.328808 244.728156 
L 431.781823 243.892626 
L 439.826704 243.637887 
L 439.826704 243.637887 
" style="fill:none;stroke:#000000;stroke-dasharray:3,3,3,3;stroke-dashoffset:0;stroke-width:1.5;"/>
   </g>
   <g id="line2d_49">
    <path clip-path="url(#pa2753412e7)" d="M 73.737335 -1 
L 75.125448 16.069477 
L 77.807075 44.026253 
L 80.488702 68.164403 
L 83.170329 89.35255 
L 85.851956 108.242783 
L 88.533583 125.345786 
L 91.21521 141.084043 
L 96.578463 170.030138 
L 99.26009 184.256395 
L 101.941717 200.910962 
L 104.623344 215.846369 
L 107.304971 225.808637 
L 109.986598 233.605439 
L 112.668225 239.956931 
L 115.349852 245.243398 
L 118.031478 249.705643 
L 120.713105 253.510331 
L 123.394732 256.779303 
L 126.076359 259.604747 
L 128.757986 262.058516 
L 131.439613 264.197607 
L 134.12124 266.067982 
L 136.802867 267.707196 
L 139.484494 269.146251 
L 142.16612 270.411069 
L 144.847747 271.523362 
L 147.529374 272.50155 
L 152.892628 274.116182 
L 158.255882 275.355919 
L 163.619135 276.296424 
L 168.982389 276.995377 
L 174.345643 277.497441 
L 182.390524 277.956007 
L 190.435404 278.138359 
L 198.480285 278.109289 
L 209.206792 277.822543 
L 219.9333 277.31556 
L 236.023061 276.30696 
L 254.794449 274.851093 
L 281.610718 272.499817 
L 407.647182 261.088275 
L 439.826704 258.506785 
L 439.826704 258.506785 
" style="fill:none;stroke:#000000;stroke-linecap:square;stroke-width:1.5;"/>
   </g>
   <g id="line2d_50">
    <path clip-path="url(#pa2753412e7)" d="M 77.279652 -1 
L 77.807075 5.315466 
L 80.488702 33.016771 
L 83.170329 57.30475 
L 85.851956 78.924617 
L 88.533583 98.456371 
L 91.21521 116.361317 
L 93.896837 133.09524 
L 99.26009 164.964244 
L 101.941717 183.145727 
L 104.623344 199.502602 
L 107.304971 210.799126 
L 109.986598 219.850562 
L 112.668225 227.385565 
L 115.349852 233.791102 
L 118.031478 239.314804 
L 120.713105 244.129444 
L 123.394732 248.359953 
L 126.076359 252.107813 
L 128.757986 255.4463 
L 131.439613 258.435837 
L 134.12124 261.125413 
L 136.802867 263.555259 
L 139.484494 265.758786 
L 142.16612 267.763937 
L 144.847747 269.594358 
L 147.529374 271.270149 
L 152.892628 274.224281 
L 158.255882 276.737627 
L 163.619135 278.894272 
L 168.982389 280.758857 
L 174.345643 282.381821 
L 179.708897 283.803057 
L 187.753777 285.624697 
L 195.798658 287.146052 
L 203.843539 288.428827 
L 211.888419 289.519569 
L 222.614927 290.735648 
L 233.341434 291.736394 
L 246.749569 292.753977 
L 262.83933 293.71624 
L 281.610718 294.577493 
L 303.063733 295.315181 
L 327.198375 295.924408 
L 356.696271 296.450264 
L 394.239047 296.888702 
L 439.826704 297.200454 
L 439.826704 297.200454 
" style="fill:none;stroke:#000000;stroke-linecap:square;stroke-width:1.5;"/>
   </g>
   <g id="patch_6">
    <path d="M 45.627553 300.544 
L 45.627553 181.8 
" style="fill:none;stroke:#808080;stroke-linecap:square;stroke-linejoin:miter;stroke-width:0.5;"/>
   </g>
   <g id="patch_7">
    <path d="M 45.627553 300.544 
L 439.826704 300.544 
" style="fill:none;stroke:#808080;stroke-linecap:square;stroke-linejoin:miter;stroke-width:0.5;"/>
   </g>
  </g>
 </g>
 <defs>
  <clipPath id="pa0377211e4">
   <rect height="118.744" width="394.199151" x="45.627553" y="14.4"/>
  </clipPath>
  <clipPath id="pa2753412e7">
   <rect height="118.744" width="394.199151" x="45.627553" y="181.8"/>
  </clipPath>
 </defs>
</svg>
